<?xml version="1.0" encoding="UTF-8"?>
<svg xmlns="http://www.w3.org/2000/svg" xmlns:xlink="http://www.w3.org/1999/xlink" width="134.687pt" height="21.301pt" viewBox="0 0 134.687 21.301" version="1.1">
<g id="surface1">
<path style="fill:none;stroke-width:0.79701;stroke-linecap:butt;stroke-linejoin:miter;stroke:rgb(0%,0%,0%);stroke-opacity:1;stroke-miterlimit:10;" d="M 0.00134375 56.694563 L 113.388063 56.694563 " transform="matrix(1,0,0,-1,10.651,67.343)"/>
<path style=" stroke:none;fill-rule:nonzero;fill:rgb(0%,0%,0%);fill-opacity:1;" d="M 16.320312 10.648438 C 16.320312 7.519531 13.78125 4.980469 10.652344 4.980469 C 7.519531 4.980469 4.980469 7.519531 4.980469 10.648438 C 4.980469 13.78125 7.519531 16.320312 10.652344 16.320312 C 13.78125 16.320312 16.320312 13.78125 16.320312 10.648438 Z M 16.320312 10.648438 "/>
<path style=" stroke:none;fill-rule:nonzero;fill:rgb(0%,0%,0%);fill-opacity:1;" d="M 129.707031 10.648438 C 129.707031 7.519531 127.167969 4.980469 124.039062 4.980469 C 120.90625 4.980469 118.367188 7.519531 118.367188 10.648438 C 118.367188 13.78125 120.90625 16.320312 124.039062 16.320312 C 127.167969 16.320312 129.707031 13.78125 129.707031 10.648438 Z M 129.707031 10.648438 "/>
</g>
</svg>
