<?xml version="1.0" encoding="UTF-8"?>
<!DOCTYPE svg PUBLIC "-//W3C//DTD SVG 1.1//EN" "http://www.w3.org/Graphics/SVG/1.1/DTD/svg11.dtd">
<!-- Creator: CorelDRAW X6 -->
<svg xmlns="http://www.w3.org/2000/svg" xml:space="preserve" width="17.2361in" height="14.1944in" version="1.1" style="shape-rendering:geometricPrecision; text-rendering:geometricPrecision; image-rendering:optimizeQuality; fill-rule:evenodd; clip-rule:evenodd"
viewBox="0 0 17236 14194"
 xmlns:xlink="http://www.w3.org/1999/xlink">
 <defs>
  <style type="text/css">
   <![CDATA[
    .fil0 {fill:#62C2A4;fill-rule:nonzero}
   ]]>
  </style>
 </defs>
 <g id="Layer_x0020_1">
  <metadata id="CorelCorpID_0Corel-Layer"/>
  <path class="fil0" d="M3502 4028c0,-1231 5,-2462 -4,-3693 -2,-235 46,-344 302,-346l19 0c1592,17 3185,-7 4777,30 2533,59 4660,2089 4846,4583 196,2631 -1552,4944 -4105,5396 -477,84 -971,66 -1458,97 -178,11 -236,-70 -234,-244 9,-726 -62,-623 597,-621 1710,5 3024,-698 3868,-2195 1414,-2509 -236,-5761 -3093,-6122 -213,-27 -428,-42 -642,-42 -1231,-3 -2462,6 -3693,-3 -231,-2 -305,73 -305,302 6,1915 6,3829 0,5744 -1,221 76,285 289,284 1270,-6 2540,11 3810,-5 1207,-15 2118,-968 2110,-2170 -8,-1177 -941,-2110 -2128,-2125 -313,-4 -625,-9 -938,2 -215,8 -319,-50 -314,-293 14,-693 -61,-576 570,-578 380,-1 766,-12 1139,48 1548,249 2636,1631 2524,3173 -115,1581 -1394,2799 -2985,2816 -1543,16 -3087,4 -4630,19 -264,3 -330,-86 -328,-337 11,-1241 5,-2481 5,-3722z"/>
  <path class="fil0" d="M6065 2027c423,0 423,0 422,463 0,408 0,408 -513,409 -364,0 -364,0 -364,-470 1,-402 1,-402 455,-402z"/>
  <polygon class="fil0" points="3498,10117 4376,10117 4376,9239 3498,9239 "/>
  <polygon class="fil0" points="5614,2893 6492,2893 6492,2015 5614,2015 "/>
  <polygon class="fil0" points="5085,10117 6901,10117 6901,9239 5085,9239 "/>
  <path class="fil0" d="M1234 13754c116,-67 208,-158 275,-274 67,-116 101,-244 101,-384 0,-140 -34,-268 -101,-384 -67,-116 -158,-208 -274,-275 -116,-67 -243,-100 -382,-100l-506 0 0 1518 506 0c138,0 265,-33 381,-100zm-1234 -1730l853 0c203,0 388,47 557,142 169,95 302,225 400,389 98,164 147,345 147,542 0,197 -49,377 -147,541 -98,164 -231,293 -400,388 -169,95 -354,142 -557,142l-853 0 0 -2144z"/>
  <polygon class="fil0" points="3616,14168 3616,12024 5000,12024 5000,12356 3963,12356 3963,12909 4805,12909 4805,13234 3963,13234 3963,13835 5000,13835 5000,14168 "/>
  <path class="fil0" d="M8581 12024l-953 2144 -305 0 -953 -2144 232 0c47,0 88,11 122,32 34,22 61,53 79,94l603 1365c35,77 56,166 64,268l11 0c8,-102 30,-191 64,-268l603 -1365c18,-40 45,-71 80,-93 35,-22 75,-33 121,-33l232 0z"/>
  <polygon class="fil0" points="10088,14168 10435,14168 10435,12025 10088,12025 "/>
  <polygon class="fil0" points="12004,12024 13683,12024 13683,12355 13019,12355 13019,14168 12672,14168 12672,12355 12004,12355 "/>
  <path class="fil0" d="M15433 13484c70,117 164,210 284,277 120,67 252,101 397,101 145,0 278,-34 398,-101 120,-67 214,-160 284,-277 70,-117 104,-246 104,-387 0,-142 -35,-271 -104,-388 -70,-117 -164,-209 -284,-277 -120,-68 -252,-102 -398,-102 -145,0 -278,34 -397,102 -120,68 -214,160 -284,277 -69,117 -104,246 -104,388 0,141 35,270 104,387zm-301 -945c100,-168 236,-300 409,-397 173,-97 364,-145 572,-145 210,0 401,48 574,145 173,97 309,229 410,397 100,168 150,354 150,557 0,203 -50,388 -150,556 -100,168 -237,300 -410,397 -173,97 -364,145 -574,145 -209,0 -399,-48 -572,-145 -173,-97 -309,-229 -409,-397 -100,-168 -150,-353 -150,-556 0,-204 50,-390 150,-557z"/>
 </g>
</svg>
