<?xml version="1.0" encoding="UTF-8"?>
<svg xmlns="http://www.w3.org/2000/svg" xmlns:xlink="http://www.w3.org/1999/xlink" width="134.687pt" height="163.033pt" viewBox="0 0 134.687 163.033" version="1.1">
<g id="surface1">
<path style="fill:none;stroke-width:0.79701;stroke-linecap:butt;stroke-linejoin:miter;stroke:rgb(0%,0%,0%);stroke-opacity:1;stroke-miterlimit:10;" d="M 0.00134375 -0.0008125 L 0.00134375 113.385906 L 113.388063 113.385906 L 113.388063 -0.0008125 Z M 0.00134375 -0.0008125 " transform="matrix(1,0,0,-1,10.651,152.382)"/>
<path style="fill:none;stroke-width:0.79701;stroke-linecap:butt;stroke-linejoin:miter;stroke:rgb(0%,0%,0%);stroke-opacity:1;stroke-miterlimit:10;" d="M 0.00134375 -0.0008125 L 28.345094 28.346844 " transform="matrix(1,0,0,-1,10.651,152.382)"/>
<path style="fill:none;stroke-width:0.79701;stroke-linecap:butt;stroke-linejoin:miter;stroke:rgb(0%,0%,0%);stroke-opacity:1;stroke-miterlimit:10;" d="M 113.388063 -0.0008125 L 28.345094 28.346844 " transform="matrix(1,0,0,-1,10.651,152.382)"/>
<path style="fill:none;stroke-width:0.79701;stroke-linecap:butt;stroke-linejoin:miter;stroke:rgb(0%,0%,0%);stroke-opacity:1;stroke-miterlimit:10;" d="M 0.00134375 113.385906 L 28.345094 141.733562 " transform="matrix(1,0,0,-1,10.651,152.382)"/>
<path style="fill:none;stroke-width:0.79701;stroke-linecap:butt;stroke-linejoin:miter;stroke:rgb(0%,0%,0%);stroke-opacity:1;stroke-miterlimit:10;" d="M 113.388063 113.385906 L 28.345094 141.733562 " transform="matrix(1,0,0,-1,10.651,152.382)"/>
<path style="fill:none;stroke-width:0.79701;stroke-linecap:butt;stroke-linejoin:miter;stroke:rgb(0%,0%,0%);stroke-opacity:1;stroke-miterlimit:10;" d="M 28.345094 28.346844 L 28.345094 141.733562 " transform="matrix(1,0,0,-1,10.651,152.382)"/>
<path style=" stroke:none;fill-rule:nonzero;fill:rgb(0%,0%,0%);fill-opacity:1;" d="M 16.320312 152.382812 C 16.320312 149.25 13.78125 146.710938 10.652344 146.710938 C 7.519531 146.710938 4.980469 149.25 4.980469 152.382812 C 4.980469 155.511719 7.519531 158.050781 10.652344 158.050781 C 13.78125 158.050781 16.320312 155.511719 16.320312 152.382812 Z M 16.320312 152.382812 "/>
<path style=" stroke:none;fill-rule:nonzero;fill:rgb(0%,0%,0%);fill-opacity:1;" d="M 129.707031 152.382812 C 129.707031 149.25 127.167969 146.710938 124.039062 146.710938 C 120.90625 146.710938 118.367188 149.25 118.367188 152.382812 C 118.367188 155.511719 120.90625 158.050781 124.039062 158.050781 C 127.167969 158.050781 129.707031 155.511719 129.707031 152.382812 Z M 129.707031 152.382812 "/>
<path style=" stroke:none;fill-rule:nonzero;fill:rgb(0%,0%,0%);fill-opacity:1;" d="M 16.320312 38.996094 C 16.320312 35.863281 13.78125 33.324219 10.652344 33.324219 C 7.519531 33.324219 4.980469 35.863281 4.980469 38.996094 C 4.980469 42.125 7.519531 44.664062 10.652344 44.664062 C 13.78125 44.664062 16.320312 42.125 16.320312 38.996094 Z M 16.320312 38.996094 "/>
<path style=" stroke:none;fill-rule:nonzero;fill:rgb(0%,0%,0%);fill-opacity:1;" d="M 129.707031 38.996094 C 129.707031 35.863281 127.167969 33.324219 124.039062 33.324219 C 120.90625 33.324219 118.367188 35.863281 118.367188 38.996094 C 118.367188 42.125 120.90625 44.664062 124.039062 44.664062 C 127.167969 44.664062 129.707031 42.125 129.707031 38.996094 Z M 129.707031 38.996094 "/>
<path style=" stroke:none;fill-rule:nonzero;fill:rgb(0%,0%,0%);fill-opacity:1;" d="M 44.667969 124.035156 C 44.667969 120.902344 42.128906 118.367188 38.996094 118.367188 C 35.867188 118.367188 33.328125 120.902344 33.328125 124.035156 C 33.328125 127.167969 35.867188 129.703125 38.996094 129.703125 C 42.128906 129.703125 44.667969 127.167969 44.667969 124.035156 Z M 44.667969 124.035156 "/>
<path style=" stroke:none;fill-rule:nonzero;fill:rgb(0%,0%,0%);fill-opacity:1;" d="M 44.667969 10.648438 C 44.667969 7.515625 42.128906 4.980469 38.996094 4.980469 C 35.867188 4.980469 33.328125 7.515625 33.328125 10.648438 C 33.328125 13.777344 35.867188 16.316406 38.996094 16.316406 C 42.128906 16.316406 44.667969 13.777344 44.667969 10.648438 Z M 44.667969 10.648438 "/>
<path style=" stroke:none;fill-rule:nonzero;fill:rgb(0%,0%,0%);fill-opacity:1;" d="M 56.003906 142.460938 C 56.003906 139.328125 53.46875 136.792969 50.335938 136.792969 C 47.207031 136.792969 44.667969 139.328125 44.667969 142.460938 C 44.667969 145.589844 47.207031 148.128906 50.335938 148.128906 C 53.46875 148.128906 56.003906 145.589844 56.003906 142.460938 Z M 56.003906 142.460938 "/>
<path style=" stroke:none;fill-rule:nonzero;fill:rgb(0%,0%,0%);fill-opacity:1;" d="M 56.003906 29.074219 C 56.003906 25.941406 53.46875 23.402344 50.335938 23.402344 C 47.207031 23.402344 44.667969 25.941406 44.667969 29.074219 C 44.667969 32.203125 47.207031 34.742188 50.335938 34.742188 C 53.46875 34.742188 56.003906 32.203125 56.003906 29.074219 Z M 56.003906 29.074219 "/>
</g>
</svg>
