<?xml version="1.0" encoding="UTF-8"?>
<svg xmlns="http://www.w3.org/2000/svg" xmlns:xlink="http://www.w3.org/1999/xlink" width="124.145pt" height="155.495pt" viewBox="0 0 124.145 155.495" version="1.1">
<g id="surface1">
<path style="fill:none;stroke-width:0.79701;stroke-linecap:butt;stroke-linejoin:miter;stroke:rgb(0%,0%,0%);stroke-opacity:1;stroke-miterlimit:10;" d="M -0.00109375 -0.00128125 L -0.00109375 113.385437 L 113.385625 113.385437 L 113.385625 -0.00128125 Z M -0.00109375 -0.00128125 " transform="matrix(1,0,0,-1,5.38,147.112)"/>
<path style="fill:none;stroke-width:0.79701;stroke-linecap:butt;stroke-linejoin:miter;stroke:rgb(0%,0%,0%);stroke-opacity:1;stroke-miterlimit:10;" d="M -0.00109375 -0.00128125 L 28.346563 28.346375 " transform="matrix(1,0,0,-1,5.38,147.112)"/>
<path style="fill:none;stroke-width:0.79701;stroke-linecap:butt;stroke-linejoin:miter;stroke:rgb(0%,0%,0%);stroke-opacity:1;stroke-miterlimit:10;" d="M 113.385625 -0.00128125 L 28.346563 28.346375 " transform="matrix(1,0,0,-1,5.38,147.112)"/>
<path style="fill:none;stroke-width:0.79701;stroke-linecap:butt;stroke-linejoin:miter;stroke:rgb(0%,0%,0%);stroke-opacity:1;stroke-miterlimit:10;" d="M -0.00109375 113.385437 L 28.346563 141.733094 " transform="matrix(1,0,0,-1,5.38,147.112)"/>
<path style="fill:none;stroke-width:0.79701;stroke-linecap:butt;stroke-linejoin:miter;stroke:rgb(0%,0%,0%);stroke-opacity:1;stroke-miterlimit:10;" d="M 113.385625 113.385437 L 28.346563 141.733094 " transform="matrix(1,0,0,-1,5.38,147.112)"/>
<path style="fill:none;stroke-width:0.79701;stroke-linecap:butt;stroke-linejoin:miter;stroke:rgb(0%,0%,0%);stroke-opacity:1;stroke-miterlimit:10;" d="M 28.346563 28.346375 L 28.346563 141.733094 " transform="matrix(1,0,0,-1,5.38,147.112)"/>
<path style=" stroke:none;fill-rule:nonzero;fill:rgb(0%,0%,0%);fill-opacity:1;" d="M 58.386719 125.851562 C 58.386719 123.972656 56.867188 122.449219 54.988281 122.449219 C 53.109375 122.449219 51.585938 123.972656 51.585938 125.851562 C 51.585938 127.730469 53.109375 129.253906 54.988281 129.253906 C 56.867188 129.253906 58.386719 127.730469 58.386719 125.851562 Z M 58.386719 125.851562 "/>
<path style=" stroke:none;fill-rule:nonzero;fill:rgb(0%,0%,0%);fill-opacity:1;" d="M 100.910156 140.023438 C 100.910156 138.148438 99.386719 136.625 97.507812 136.625 C 95.628906 136.625 94.105469 138.148438 94.105469 140.023438 C 94.105469 141.902344 95.628906 143.425781 97.507812 143.425781 C 99.386719 143.425781 100.910156 141.902344 100.910156 140.023438 Z M 100.910156 140.023438 "/>
<path style=" stroke:none;fill-rule:nonzero;fill:rgb(0%,0%,0%);fill-opacity:1;" d="M 19.410156 136.480469 C 19.410156 134.601562 17.886719 133.082031 16.011719 133.082031 C 14.132812 133.082031 12.609375 134.601562 12.609375 136.480469 C 12.609375 138.359375 14.132812 139.882812 16.011719 139.882812 C 17.886719 139.882812 19.410156 138.359375 19.410156 136.480469 Z M 19.410156 136.480469 "/>
<path style=" stroke:none;fill-rule:nonzero;fill:rgb(0%,0%,0%);fill-opacity:1;" d="M 33.585938 122.308594 C 33.585938 120.429688 32.0625 118.90625 30.183594 118.90625 C 28.304688 118.90625 26.78125 120.429688 26.78125 122.308594 C 26.78125 124.1875 28.304688 125.710938 30.183594 125.710938 C 32.0625 125.710938 33.585938 124.1875 33.585938 122.308594 Z M 33.585938 122.308594 "/>
<path style=" stroke:none;fill-rule:nonzero;fill:rgb(0%,0%,0%);fill-opacity:1;" d="M 37.128906 147.113281 C 37.128906 145.234375 35.605469 143.710938 33.726562 143.710938 C 31.847656 143.710938 30.324219 145.234375 30.324219 147.113281 C 30.324219 148.992188 31.847656 150.511719 33.726562 150.511719 C 35.605469 150.511719 37.128906 148.992188 37.128906 147.113281 Z M 37.128906 147.113281 "/>
<path style=" stroke:none;fill-rule:nonzero;fill:rgb(0%,0%,0%);fill-opacity:1;" d="M 93.820312 147.113281 C 93.820312 145.234375 92.300781 143.710938 90.421875 143.710938 C 88.542969 143.710938 87.019531 145.234375 87.019531 147.113281 C 87.019531 148.992188 88.542969 150.511719 90.421875 150.511719 C 92.300781 150.511719 93.820312 148.992188 93.820312 147.113281 Z M 93.820312 147.113281 "/>
<path style=" stroke:none;fill-rule:nonzero;fill:rgb(0%,0%,0%);fill-opacity:1;" d="M 58.386719 69.160156 C 58.386719 67.28125 56.867188 65.757812 54.988281 65.757812 C 53.109375 65.757812 51.585938 67.28125 51.585938 69.160156 C 51.585938 71.035156 53.109375 72.558594 54.988281 72.558594 C 56.867188 72.558594 58.386719 71.035156 58.386719 69.160156 Z M 58.386719 69.160156 "/>
<path style=" stroke:none;fill-rule:nonzero;fill:rgb(0%,0%,0%);fill-opacity:1;" d="M 100.910156 83.332031 C 100.910156 81.453125 99.386719 79.929688 97.507812 79.929688 C 95.628906 79.929688 94.105469 81.453125 94.105469 83.332031 C 94.105469 85.210938 95.628906 86.734375 97.507812 86.734375 C 99.386719 86.734375 100.910156 85.210938 100.910156 83.332031 Z M 100.910156 83.332031 "/>
<path style=" stroke:none;fill-rule:nonzero;fill:rgb(0%,0%,0%);fill-opacity:1;" d="M 19.410156 79.789062 C 19.410156 77.910156 17.886719 76.386719 16.011719 76.386719 C 14.132812 76.386719 12.609375 77.910156 12.609375 79.789062 C 12.609375 81.667969 14.132812 83.191406 16.011719 83.191406 C 17.886719 83.191406 19.410156 81.667969 19.410156 79.789062 Z M 19.410156 79.789062 "/>
<path style=" stroke:none;fill-rule:nonzero;fill:rgb(0%,0%,0%);fill-opacity:1;" d="M 33.585938 65.613281 C 33.585938 63.738281 32.0625 62.214844 30.183594 62.214844 C 28.304688 62.214844 26.78125 63.738281 26.78125 65.613281 C 26.78125 67.492188 28.304688 69.015625 30.183594 69.015625 C 32.0625 69.015625 33.585938 67.492188 33.585938 65.613281 Z M 33.585938 65.613281 "/>
<path style=" stroke:none;fill-rule:nonzero;fill:rgb(0%,0%,0%);fill-opacity:1;" d="M 37.128906 90.417969 C 37.128906 88.539062 35.605469 87.015625 33.726562 87.015625 C 31.847656 87.015625 30.324219 88.539062 30.324219 90.417969 C 30.324219 92.296875 31.847656 93.820312 33.726562 93.820312 C 35.605469 93.820312 37.128906 92.296875 37.128906 90.417969 Z M 37.128906 90.417969 "/>
<path style=" stroke:none;fill-rule:nonzero;fill:rgb(0%,0%,0%);fill-opacity:1;" d="M 93.820312 90.417969 C 93.820312 88.539062 92.300781 87.015625 90.421875 87.015625 C 88.542969 87.015625 87.019531 88.539062 87.019531 90.417969 C 87.019531 92.296875 88.542969 93.820312 90.421875 93.820312 C 92.300781 93.820312 93.820312 92.296875 93.820312 90.417969 Z M 93.820312 90.417969 "/>
<path style=" stroke:none;fill-rule:nonzero;fill:rgb(0%,0%,0%);fill-opacity:1;" d="M 58.386719 12.464844 C 58.386719 10.585938 56.867188 9.0625 54.988281 9.0625 C 53.109375 9.0625 51.585938 10.585938 51.585938 12.464844 C 51.585938 14.34375 53.109375 15.867188 54.988281 15.867188 C 56.867188 15.867188 58.386719 14.34375 58.386719 12.464844 Z M 58.386719 12.464844 "/>
<path style=" stroke:none;fill-rule:nonzero;fill:rgb(0%,0%,0%);fill-opacity:1;" d="M 100.910156 26.636719 C 100.910156 24.757812 99.386719 23.238281 97.507812 23.238281 C 95.628906 23.238281 94.105469 24.757812 94.105469 26.636719 C 94.105469 28.515625 95.628906 30.039062 97.507812 30.039062 C 99.386719 30.039062 100.910156 28.515625 100.910156 26.636719 Z M 100.910156 26.636719 "/>
<path style=" stroke:none;fill-rule:nonzero;fill:rgb(0%,0%,0%);fill-opacity:1;" d="M 19.410156 23.09375 C 19.410156 21.214844 17.886719 19.691406 16.011719 19.691406 C 14.132812 19.691406 12.609375 21.214844 12.609375 23.09375 C 12.609375 24.972656 14.132812 26.496094 16.011719 26.496094 C 17.886719 26.496094 19.410156 24.972656 19.410156 23.09375 Z M 19.410156 23.09375 "/>
<path style=" stroke:none;fill-rule:nonzero;fill:rgb(0%,0%,0%);fill-opacity:1;" d="M 33.585938 8.921875 C 33.585938 7.042969 32.0625 5.519531 30.183594 5.519531 C 28.304688 5.519531 26.78125 7.042969 26.78125 8.921875 C 26.78125 10.800781 28.304688 12.324219 30.183594 12.324219 C 32.0625 12.324219 33.585938 10.800781 33.585938 8.921875 Z M 33.585938 8.921875 "/>
<path style=" stroke:none;fill-rule:nonzero;fill:rgb(0%,0%,0%);fill-opacity:1;" d="M 37.128906 33.726562 C 37.128906 31.847656 35.605469 30.324219 33.726562 30.324219 C 31.847656 30.324219 30.324219 31.847656 30.324219 33.726562 C 30.324219 35.601562 31.847656 37.125 33.726562 37.125 C 35.605469 37.125 37.128906 35.601562 37.128906 33.726562 Z M 37.128906 33.726562 "/>
<path style=" stroke:none;fill-rule:nonzero;fill:rgb(0%,0%,0%);fill-opacity:1;" d="M 93.820312 33.726562 C 93.820312 31.847656 92.300781 30.324219 90.421875 30.324219 C 88.542969 30.324219 87.019531 31.847656 87.019531 33.726562 C 87.019531 35.601562 88.542969 37.125 90.421875 37.125 C 92.300781 37.125 93.820312 35.601562 93.820312 33.726562 Z M 93.820312 33.726562 "/>
<path style="fill:none;stroke-width:1.59404;stroke-linecap:butt;stroke-linejoin:miter;stroke:rgb(0%,0%,0%);stroke-opacity:1;stroke-miterlimit:10;" d="M 49.608281 21.260437 L 37.256719 25.377625 " transform="matrix(1,0,0,-1,5.38,147.112)"/>
<path style=" stroke:none;fill-rule:nonzero;fill:rgb(0%,0%,0%);fill-opacity:1;" d="M 39.042969 120.535156 L 43.835938 125.332031 L 42.636719 121.734375 L 45.753906 119.578125 "/>
<path style="fill:none;stroke-width:1.59404;stroke-linecap:butt;stroke-linejoin:miter;stroke:rgb(0%,0%,0%);stroke-opacity:1;stroke-miterlimit:10;" d="M 92.127813 7.088562 L 79.77625 11.201844 " transform="matrix(1,0,0,-1,5.38,147.112)"/>
<path style=" stroke:none;fill-rule:nonzero;fill:rgb(0%,0%,0%);fill-opacity:1;" d="M 81.5625 134.710938 L 86.355469 139.503906 L 85.15625 135.910156 L 88.273438 133.75 "/>
<path style="fill:none;stroke-width:1.59404;stroke-linecap:butt;stroke-linejoin:miter;stroke:rgb(0%,0%,0%);stroke-opacity:1;stroke-miterlimit:10;" d="M 10.631719 10.631531 L 4.448125 4.447937 " transform="matrix(1,0,0,-1,5.38,147.112)"/>
<path style=" stroke:none;fill-rule:nonzero;fill:rgb(0%,0%,0%);fill-opacity:1;" d="M 7.152344 145.339844 L 13.578125 143.199219 L 9.828125 142.664062 L 9.292969 138.914062 "/>
<path style="fill:none;stroke-width:1.59404;stroke-linecap:butt;stroke-linejoin:miter;stroke:rgb(0%,0%,0%);stroke-opacity:1;stroke-miterlimit:10;" d="M 24.803594 24.803406 L 18.623906 18.623719 " transform="matrix(1,0,0,-1,5.38,147.112)"/>
<path style=" stroke:none;fill-rule:nonzero;fill:rgb(0%,0%,0%);fill-opacity:1;" d="M 21.324219 131.167969 L 27.75 129.027344 L 24.003906 128.488281 L 23.46875 124.742188 "/>
<path style="fill:none;stroke-width:1.59404;stroke-linecap:butt;stroke-linejoin:miter;stroke:rgb(0%,0%,0%);stroke-opacity:1;stroke-miterlimit:10;" d="M 28.346563 -0.00128125 L 45.819219 -0.00128125 " transform="matrix(1,0,0,-1,5.38,147.112)"/>
<path style=" stroke:none;fill-rule:nonzero;fill:rgb(0%,0%,0%);fill-opacity:1;" d="M 54.988281 147.113281 L 48.929688 144.082031 L 51.199219 147.113281 L 48.929688 150.140625 "/>
<path style="fill:none;stroke-width:1.59404;stroke-linecap:butt;stroke-linejoin:miter;stroke:rgb(0%,0%,0%);stroke-opacity:1;stroke-miterlimit:10;" d="M 85.041875 -0.00128125 L 102.514531 -0.00128125 " transform="matrix(1,0,0,-1,5.38,147.112)"/>
<path style=" stroke:none;fill-rule:nonzero;fill:rgb(0%,0%,0%);fill-opacity:1;" d="M 111.679688 147.113281 L 105.625 144.082031 L 107.894531 147.113281 L 105.625 150.140625 "/>
<path style="fill:none;stroke-width:1.59404;stroke-linecap:butt;stroke-linejoin:miter;stroke:rgb(0%,0%,0%);stroke-opacity:1;stroke-miterlimit:10;" d="M 49.608281 77.951844 L 37.256719 82.069031 " transform="matrix(1,0,0,-1,5.38,147.112)"/>
<path style=" stroke:none;fill-rule:nonzero;fill:rgb(0%,0%,0%);fill-opacity:1;" d="M 39.042969 63.84375 L 43.835938 68.636719 L 42.636719 65.042969 L 45.753906 62.882812 "/>
<path style="fill:none;stroke-width:1.59404;stroke-linecap:butt;stroke-linejoin:miter;stroke:rgb(0%,0%,0%);stroke-opacity:1;stroke-miterlimit:10;" d="M 92.127813 63.779969 L 79.77625 67.897156 " transform="matrix(1,0,0,-1,5.38,147.112)"/>
<path style=" stroke:none;fill-rule:nonzero;fill:rgb(0%,0%,0%);fill-opacity:1;" d="M 81.5625 78.015625 L 86.355469 82.808594 L 85.15625 79.214844 L 88.273438 77.058594 "/>
<path style="fill:none;stroke-width:1.59404;stroke-linecap:butt;stroke-linejoin:miter;stroke:rgb(0%,0%,0%);stroke-opacity:1;stroke-miterlimit:10;" d="M 10.631719 67.322937 L 4.448125 61.14325 " transform="matrix(1,0,0,-1,5.38,147.112)"/>
<path style=" stroke:none;fill-rule:nonzero;fill:rgb(0%,0%,0%);fill-opacity:1;" d="M 7.152344 88.648438 L 13.578125 86.503906 L 9.828125 85.96875 L 9.292969 82.222656 "/>
<path style="fill:none;stroke-width:1.59404;stroke-linecap:butt;stroke-linejoin:miter;stroke:rgb(0%,0%,0%);stroke-opacity:1;stroke-miterlimit:10;" d="M 24.803594 81.498719 L 18.623906 75.315125 " transform="matrix(1,0,0,-1,5.38,147.112)"/>
<path style=" stroke:none;fill-rule:nonzero;fill:rgb(0%,0%,0%);fill-opacity:1;" d="M 21.324219 74.472656 L 27.75 72.332031 L 24.003906 71.796875 L 23.46875 68.046875 "/>
<path style="fill:none;stroke-width:1.59404;stroke-linecap:butt;stroke-linejoin:miter;stroke:rgb(0%,0%,0%);stroke-opacity:1;stroke-miterlimit:10;" d="M 28.346563 56.694031 L 45.819219 56.694031 " transform="matrix(1,0,0,-1,5.38,147.112)"/>
<path style=" stroke:none;fill-rule:nonzero;fill:rgb(0%,0%,0%);fill-opacity:1;" d="M 54.988281 90.417969 L 48.929688 87.390625 L 51.199219 90.417969 L 48.929688 93.445312 "/>
<path style="fill:none;stroke-width:1.59404;stroke-linecap:butt;stroke-linejoin:miter;stroke:rgb(0%,0%,0%);stroke-opacity:1;stroke-miterlimit:10;" d="M 85.041875 56.694031 L 102.514531 56.694031 " transform="matrix(1,0,0,-1,5.38,147.112)"/>
<path style=" stroke:none;fill-rule:nonzero;fill:rgb(0%,0%,0%);fill-opacity:1;" d="M 111.679688 90.417969 L 105.625 87.390625 L 107.894531 90.417969 L 105.625 93.445312 "/>
<path style="fill:none;stroke-width:1.59404;stroke-linecap:butt;stroke-linejoin:miter;stroke:rgb(0%,0%,0%);stroke-opacity:1;stroke-miterlimit:10;" d="M 49.608281 134.647156 L 37.256719 138.764344 " transform="matrix(1,0,0,-1,5.38,147.112)"/>
<path style=" stroke:none;fill-rule:nonzero;fill:rgb(0%,0%,0%);fill-opacity:1;" d="M 39.042969 7.148438 L 43.835938 11.941406 L 42.636719 8.347656 L 45.753906 6.191406 "/>
<path style="fill:none;stroke-width:1.59404;stroke-linecap:butt;stroke-linejoin:miter;stroke:rgb(0%,0%,0%);stroke-opacity:1;stroke-miterlimit:10;" d="M 92.127813 120.475281 L 79.77625 124.592469 " transform="matrix(1,0,0,-1,5.38,147.112)"/>
<path style=" stroke:none;fill-rule:nonzero;fill:rgb(0%,0%,0%);fill-opacity:1;" d="M 81.5625 21.324219 L 86.355469 26.117188 L 85.15625 22.519531 L 88.273438 20.363281 "/>
<path style="fill:none;stroke-width:1.59404;stroke-linecap:butt;stroke-linejoin:miter;stroke:rgb(0%,0%,0%);stroke-opacity:1;stroke-miterlimit:10;" d="M 10.631719 124.01825 L 4.448125 117.834656 " transform="matrix(1,0,0,-1,5.38,147.112)"/>
<path style=" stroke:none;fill-rule:nonzero;fill:rgb(0%,0%,0%);fill-opacity:1;" d="M 7.152344 31.953125 L 13.578125 29.8125 L 9.828125 29.277344 L 9.292969 25.527344 "/>
<path style="fill:none;stroke-width:1.59404;stroke-linecap:butt;stroke-linejoin:miter;stroke:rgb(0%,0%,0%);stroke-opacity:1;stroke-miterlimit:10;" d="M 24.803594 138.190125 L 18.623906 132.010437 " transform="matrix(1,0,0,-1,5.38,147.112)"/>
<path style=" stroke:none;fill-rule:nonzero;fill:rgb(0%,0%,0%);fill-opacity:1;" d="M 21.324219 17.78125 L 27.75 15.636719 L 24.003906 15.101562 L 23.46875 11.355469 "/>
<path style="fill:none;stroke-width:1.59404;stroke-linecap:butt;stroke-linejoin:miter;stroke:rgb(0%,0%,0%);stroke-opacity:1;stroke-miterlimit:10;" d="M 28.346563 113.385437 L 45.819219 113.385437 " transform="matrix(1,0,0,-1,5.38,147.112)"/>
<path style=" stroke:none;fill-rule:nonzero;fill:rgb(0%,0%,0%);fill-opacity:1;" d="M 54.988281 33.726562 L 48.929688 30.695312 L 51.199219 33.726562 L 48.929688 36.753906 "/>
<path style="fill:none;stroke-width:1.59404;stroke-linecap:butt;stroke-linejoin:miter;stroke:rgb(0%,0%,0%);stroke-opacity:1;stroke-miterlimit:10;" d="M 85.041875 113.385437 L 102.514531 113.385437 " transform="matrix(1,0,0,-1,5.38,147.112)"/>
<path style=" stroke:none;fill-rule:nonzero;fill:rgb(0%,0%,0%);fill-opacity:1;" d="M 111.679688 33.726562 L 105.625 30.695312 L 107.894531 33.726562 L 105.625 36.753906 "/>
</g>
</svg>
