<?xml version="1.0" encoding="UTF-8"?>
<svg xmlns="http://www.w3.org/2000/svg" xmlns:xlink="http://www.w3.org/1999/xlink" width="127.148pt" height="127.148pt" viewBox="0 0 127.148 127.148" version="1.1">
<g id="surface1">
<path style="fill:none;stroke-width:0.79701;stroke-linecap:butt;stroke-linejoin:miter;stroke:rgb(0%,0%,0%);stroke-opacity:1;stroke-miterlimit:10;" d="M -0.0001875 -0.000625 L -0.0001875 113.386094 " transform="matrix(1,0,0,-1,8.383,118.765)"/>
<path style="fill:none;stroke-width:0.79701;stroke-linecap:butt;stroke-linejoin:miter;stroke:rgb(0%,0%,0%);stroke-opacity:1;stroke-miterlimit:10;" d="M 113.386531 -0.000625 L -0.0001875 113.386094 " transform="matrix(1,0,0,-1,8.383,118.765)"/>
<path style="fill:none;stroke-width:0.79701;stroke-linecap:butt;stroke-linejoin:miter;stroke:rgb(0%,0%,0%);stroke-opacity:1;stroke-miterlimit:10;" d="M -0.0001875 -0.000625 L 113.386531 -0.000625 " transform="matrix(1,0,0,-1,8.383,118.765)"/>
<path style=" stroke:none;fill-rule:nonzero;fill:rgb(0%,0%,0%);fill-opacity:1;" d="M 11.785156 90.417969 C 11.785156 88.539062 10.261719 87.015625 8.382812 87.015625 C 6.503906 87.015625 4.980469 88.539062 4.980469 90.417969 C 4.980469 92.296875 6.503906 93.820312 8.382812 93.820312 C 10.261719 93.820312 11.785156 92.296875 11.785156 90.417969 Z M 11.785156 90.417969 "/>
<path style=" stroke:none;fill-rule:nonzero;fill:rgb(0%,0%,0%);fill-opacity:1;" d="M 11.785156 33.722656 C 11.785156 31.847656 10.261719 30.324219 8.382812 30.324219 C 6.503906 30.324219 4.980469 31.847656 4.980469 33.722656 C 4.980469 35.601562 6.503906 37.125 8.382812 37.125 C 10.261719 37.125 11.785156 35.601562 11.785156 33.722656 Z M 11.785156 33.722656 "/>
<path style=" stroke:none;fill-rule:nonzero;fill:rgb(0%,0%,0%);fill-opacity:1;" d="M 40.132812 118.765625 C 40.132812 116.886719 38.609375 115.363281 36.730469 115.363281 C 34.851562 115.363281 33.328125 116.886719 33.328125 118.765625 C 33.328125 120.644531 34.851562 122.167969 36.730469 122.167969 C 38.609375 122.167969 40.132812 120.644531 40.132812 118.765625 Z M 40.132812 118.765625 "/>
<path style=" stroke:none;fill-rule:nonzero;fill:rgb(0%,0%,0%);fill-opacity:1;" d="M 96.824219 118.765625 C 96.824219 116.886719 95.300781 115.363281 93.421875 115.363281 C 91.542969 115.363281 90.023438 116.886719 90.023438 118.765625 C 90.023438 120.644531 91.542969 122.167969 93.421875 122.167969 C 95.300781 122.167969 96.824219 120.644531 96.824219 118.765625 Z M 96.824219 118.765625 "/>
<path style=" stroke:none;fill-rule:nonzero;fill:rgb(0%,0%,0%);fill-opacity:1;" d="M 40.132812 33.722656 C 40.132812 31.847656 38.609375 30.324219 36.730469 30.324219 C 34.851562 30.324219 33.328125 31.847656 33.328125 33.722656 C 33.328125 35.601562 34.851562 37.125 36.730469 37.125 C 38.609375 37.125 40.132812 35.601562 40.132812 33.722656 Z M 40.132812 33.722656 "/>
<path style=" stroke:none;fill-rule:nonzero;fill:rgb(0%,0%,0%);fill-opacity:1;" d="M 96.824219 90.417969 C 96.824219 88.539062 95.300781 87.015625 93.421875 87.015625 C 91.542969 87.015625 90.023438 88.539062 90.023438 90.417969 C 90.023438 92.296875 91.542969 93.820312 93.421875 93.820312 C 95.300781 93.820312 96.824219 92.296875 96.824219 90.417969 Z M 96.824219 90.417969 "/>
<path style="fill:none;stroke-width:1.59404;stroke-linecap:butt;stroke-linejoin:miter;stroke:rgb(0%,0%,0%);stroke-opacity:1;stroke-miterlimit:10;" d="M 28.347469 85.042344 L 16.851375 96.538438 " transform="matrix(1,0,0,-1,8.383,118.765)"/>
<path style=" stroke:none;fill-rule:nonzero;fill:rgb(0%,0%,0%);fill-opacity:1;" d="M 22.554688 19.550781 L 24.699219 25.976562 L 25.234375 22.226562 L 28.980469 21.691406 "/>
<path style="fill:none;stroke-width:1.59404;stroke-linecap:butt;stroke-linejoin:miter;stroke:rgb(0%,0%,0%);stroke-opacity:1;stroke-miterlimit:10;" d="M 85.038875 28.347031 L 73.542781 39.843125 " transform="matrix(1,0,0,-1,8.383,118.765)"/>
<path style=" stroke:none;fill-rule:nonzero;fill:rgb(0%,0%,0%);fill-opacity:1;" d="M 79.25 76.246094 L 81.390625 82.667969 L 81.925781 78.921875 L 85.675781 78.386719 "/>
<path style="fill:none;stroke-width:1.59404;stroke-linecap:butt;stroke-linejoin:miter;stroke:rgb(0%,0%,0%);stroke-opacity:1;stroke-miterlimit:10;" d="M -0.0001875 28.347031 L -0.0001875 10.874375 " transform="matrix(1,0,0,-1,8.383,118.765)"/>
<path style=" stroke:none;fill-rule:nonzero;fill:rgb(0%,0%,0%);fill-opacity:1;" d="M 8.382812 111.679688 L 11.410156 105.621094 L 8.382812 107.890625 L 5.355469 105.621094 "/>
<path style="fill:none;stroke-width:1.59404;stroke-linecap:butt;stroke-linejoin:miter;stroke:rgb(0%,0%,0%);stroke-opacity:1;stroke-miterlimit:10;" d="M -0.0001875 85.042344 L -0.0001875 67.565781 " transform="matrix(1,0,0,-1,8.383,118.765)"/>
<path style=" stroke:none;fill-rule:nonzero;fill:rgb(0%,0%,0%);fill-opacity:1;" d="M 8.382812 54.984375 L 11.410156 48.925781 L 8.382812 51.199219 L 5.355469 48.925781 "/>
<path style="fill:none;stroke-width:1.59404;stroke-linecap:butt;stroke-linejoin:miter;stroke:rgb(0%,0%,0%);stroke-opacity:1;stroke-miterlimit:10;" d="M 28.347469 -0.000625 L 45.820125 -0.000625 " transform="matrix(1,0,0,-1,8.383,118.765)"/>
<path style=" stroke:none;fill-rule:nonzero;fill:rgb(0%,0%,0%);fill-opacity:1;" d="M 57.988281 118.765625 L 51.933594 115.738281 L 54.203125 118.765625 L 51.933594 121.792969 "/>
<path style="fill:none;stroke-width:1.59404;stroke-linecap:butt;stroke-linejoin:miter;stroke:rgb(0%,0%,0%);stroke-opacity:1;stroke-miterlimit:10;" d="M 85.038875 -0.000625 L 102.515438 -0.000625 " transform="matrix(1,0,0,-1,8.383,118.765)"/>
<path style=" stroke:none;fill-rule:nonzero;fill:rgb(0%,0%,0%);fill-opacity:1;" d="M 114.683594 118.765625 L 108.625 115.738281 L 110.898438 118.765625 L 108.625 121.792969 "/>
</g>
</svg>
