<?xml version="1.0" encoding="UTF-8"?>
<svg xmlns="http://www.w3.org/2000/svg" xmlns:xlink="http://www.w3.org/1999/xlink" width="134.687pt" height="134.687pt" viewBox="0 0 134.687 134.687" version="1.1">
<g id="surface1">
<path style="fill:none;stroke-width:0.79701;stroke-linecap:butt;stroke-linejoin:miter;stroke:rgb(0%,0%,0%);stroke-opacity:1;stroke-miterlimit:10;" d="M 0.00134375 0.00084375 L 0.00134375 113.387563 L 113.388063 113.387563 L 113.388063 0.00084375 Z M 0.00134375 0.00084375 " transform="matrix(1,0,0,-1,10.651,124.036)"/>
<path style=" stroke:none;fill-rule:nonzero;fill:rgb(0%,0%,0%);fill-opacity:1;" d="M 73.015625 124.035156 C 73.015625 120.90625 70.476562 118.367188 67.34375 118.367188 C 64.214844 118.367188 61.675781 120.90625 61.675781 124.035156 C 61.675781 127.167969 64.214844 129.707031 67.34375 129.707031 C 70.476562 129.707031 73.015625 127.167969 73.015625 124.035156 Z M 73.015625 124.035156 "/>
<path style=" stroke:none;fill-rule:nonzero;fill:rgb(0%,0%,0%);fill-opacity:1;" d="M 16.320312 67.34375 C 16.320312 64.210938 13.78125 61.671875 10.652344 61.671875 C 7.519531 61.671875 4.980469 64.210938 4.980469 67.34375 C 4.980469 70.472656 7.519531 73.011719 10.652344 73.011719 C 13.78125 73.011719 16.320312 70.472656 16.320312 67.34375 Z M 16.320312 67.34375 "/>
<path style=" stroke:none;fill-rule:nonzero;fill:rgb(0%,0%,0%);fill-opacity:1;" d="M 129.707031 67.34375 C 129.707031 64.210938 127.167969 61.671875 124.039062 61.671875 C 120.90625 61.671875 118.367188 64.210938 118.367188 67.34375 C 118.367188 70.472656 120.90625 73.011719 124.039062 73.011719 C 127.167969 73.011719 129.707031 70.472656 129.707031 67.34375 Z M 129.707031 67.34375 "/>
<path style=" stroke:none;fill-rule:nonzero;fill:rgb(0%,0%,0%);fill-opacity:1;" d="M 73.015625 10.648438 C 73.015625 7.519531 70.476562 4.980469 67.34375 4.980469 C 64.214844 4.980469 61.675781 7.519531 61.675781 10.648438 C 61.675781 13.78125 64.214844 16.316406 67.34375 16.316406 C 70.476562 16.316406 73.015625 13.78125 73.015625 10.648438 Z M 73.015625 10.648438 "/>
</g>
</svg>
