<svg width="331" height="85" viewBox="0 0 165.5 42.5" xmlns="http://www.w3.org/2000/svg">
  <path d="M165.41 38.188h-1.39v-7.602h1.39zm-2.566 0h-1.371v-5.356h1.37zm-1.61-6.852c0-.516.418-.91.922-.91.493 0 .899.394.899.91 0 .48-.406.898-.899.898-.504 0-.922-.418-.922-.898m-3.437 6.906c-1.488 0-2.707-1.148-2.707-2.722 0-1.594 1.262-2.739 2.762-2.739 1.218 0 2.257.758 2.558 2.012h-1.457c-.222-.438-.62-.715-1.133-.715-.75 0-1.351.598-1.351 1.434s.601 1.433 1.351 1.433c.48 0 .856-.246 1.09-.64h1.469c-.344 1.273-1.445 1.937-2.582 1.937m-3.629-2.957v2.902h-1.426v-2.582c0-.18.13-1.53-.898-1.582-.504-.03-1.403.247-1.403 1.649v2.515h-1.414v-5.355h1.094l.18.656h.183c.223-.27.727-.707 1.63-.707 1.378 0 2.054 1.028 2.054 2.504m-6.406-2.453v5.355h-1.07l-.192-.601h-.14c-.212.27-.684.656-1.563.656-1.422 0-2.152-1.008-2.152-2.508v-2.902h1.457v2.582c0 .664.055 1.586.972 1.586.473 0 1.246-.246 1.246-1.648v-2.52zm-7.442 2.68c0-.836-.492-1.489-1.304-1.489-.817 0-1.36.653-1.36 1.489 0 .832.543 1.488 1.36 1.488.812 0 1.304-.656 1.304-1.488m-4.066.011c0-1.714 1.324-2.742 2.762-2.742 1.445 0 2.707 1.04 2.707 2.719 0 1.703-1.305 2.742-2.75 2.742-1.457 0-2.72-1.039-2.72-2.719m-.589.414c-.43 1.438-1.629 2.305-3.074 2.305-1.961 0-3.383-1.605-3.383-3.8 0-2.196 1.414-3.801 3.371-3.801 1.434 0 2.656.867 3.086 2.3h-1.617c-.281-.601-.785-.89-1.445-.89-1.223 0-1.918.996-1.918 2.39 0 1.391.707 2.387 1.937 2.387.664 0 1.145-.289 1.426-.89zm-11.738-2.023c-.45 0-.64.227-.64.45 0 .366.48.472.8.534.953.207 1.918.497 1.918 1.63 0 1.1-.91 1.714-2.016 1.714-1.23 0-2.183-.75-2.246-1.887h1.317c.03.325.246.739.898.739.547 0 .676-.29.676-.512 0-.398-.375-.516-.738-.602-.633-.136-1.993-.394-1.993-1.617 0-1.047 1.008-1.582 2.047-1.582 1.2 0 1.992.727 2.055 1.625h-1.316c-.043-.18-.215-.492-.762-.492m-6.746.922h2.41c-.16-.633-.602-.89-1.137-.89-.59 0-1.058.331-1.273.89m3.824 1.082h-3.91c.16.812.824 1.113 1.402 1.113.73 0 1.04-.449 1.04-.449h1.35c-.41 1.07-1.382 1.66-2.433 1.66-1.445 0-2.707-1.105-2.707-2.773 0-1.66 1.25-2.688 2.664-2.688 1.371 0 2.766.953 2.594 3.137m-6.254 2.27h-1.371v-5.356h1.371zm-1.605-6.852c0-.516.414-.91.918-.91.492 0 .902.394.902.91 0 .48-.41.898-.903.898-.503 0-.917-.418-.917-.898m-.356 6.457s-.45.45-1.273.45c-1.028 0-1.918-.696-1.918-1.778V33.98h-1.07v-1.05h.534c.364 0 .61-.246.61-.633v-1.07h1.297v1.605h1.347v1.148h-1.347v2.399c0 .363.3.64.683.64.325 0 .621-.18.621-.18zm-5.023.394h-1.368v-5.355h1.368zm-1.606-6.851c0-.516.418-.91.922-.91.492 0 .898.394.898.91 0 .48-.406.898-.898.898-.504 0-.922-.418-.922-.898m-1.027 6.852h-1.395v-7.602h1.395zm-2.57 0h-1.372v-5.356h1.371zm-1.606-6.852c0-.516.418-.91.922-.91.492 0 .898.394.898.91 0 .48-.406.898-.898.898-.504 0-.922-.418-.922-.898m-3.437 6.906c-1.489 0-2.711-1.148-2.711-2.722 0-1.594 1.265-2.739 2.765-2.739 1.219 0 2.258.758 2.559 2.012h-1.457c-.227-.438-.621-.715-1.137-.715-.75 0-1.348.598-1.348 1.434s.598 1.433 1.348 1.433c.484 0 .86-.246 1.094-.64h1.465c-.34 1.273-1.446 1.937-2.578 1.937m-5.121-2.304v-.106c-.973.105-1.938.227-1.938.781 0 .813 1.855.75 1.938-.676m1.949 1.223v1.028h-.32c-.622 0-1.06-.223-1.243-.684-.32.437-.855.738-1.691.738-1.211 0-1.98-.62-1.98-1.586 0-1.672 2.28-1.82 3.308-1.875-.023-.62-.363-.843-.91-.843-.762 0-.813.46-.813.46h-1.34c.098-.953.88-1.617 2.184-1.617 1.273 0 2.172.63 2.172 2.184v1.426c0 .62.226.77.633.77m-9.004-5.11v1.672h2.86v1.316h-2.86v3.149h-1.438V30.69h4.938v1.36zm53.808-10.188-1.863 5.559c-.297.887-.652 1.992-2.27 1.992-.96 0-1.464-.387-1.624-.59l.671-.953c.055.055.387.332.836.332.45 0 .75-.183.868-.547l.148-.437h-.715l-1.844-5.356h1.493l1.347 3.899h.215l1.305-3.899zm-9.816 1.746c0 .407.289.707.91.707.61 0 .91-.3.91-.707 0-.394-.3-.675-.91-.675-.613 0-.91.27-.91.675m2.023 3.993c0-.29-.238-.512-.835-.512-.301 0-.72 0-1.028-.012l-.363.387c-.066.265.203.707 1.144.707.696 0 1.082-.227 1.082-.57m1.317.043c-.043 1.21-1.145 1.77-2.422 1.77-1.66 0-2.613-.954-2.367-2.11l.613-.496c-.344-.211-.57-.543-.57-.942 0-.437.281-.746.664-.953-.364-.332-.543-.781-.543-1.281 0-1.031.789-1.832 2.14-1.832.473 0 .887.094 1.223.265.578-.265.906-.695.906-.695l.664.89s-.363.247-.855.395c.203.278.308.61.308.965 0 1.016-.93 1.832-2.277 1.832-.281 0-.535-.035-.761-.098-.086.055-.16.137-.16.266 0 .387.59.324.952.324h.75c1.176 0 1.766.801 1.735 1.7m-6.832-3.106c0-.832-.492-1.484-1.309-1.484-.812 0-1.36.652-1.36 1.484 0 .836.548 1.488 1.36 1.488.817 0 1.309-.652 1.309-1.488m-4.07.012c0-1.711 1.328-2.739 2.761-2.739 1.446 0 2.711 1.036 2.711 2.72 0 1.702-1.308 2.738-2.754 2.738-1.457 0-2.718-1.036-2.718-2.72m-.93 2.669h-1.395v-7.602h1.395zm-3.719-2.68c0-.832-.492-1.484-1.305-1.484-.812 0-1.359.652-1.359 1.484 0 .836.547 1.488 1.36 1.488.812 0 1.304-.652 1.304-1.488m-4.066.012c0-1.711 1.328-2.739 2.761-2.739 1.446 0 2.707 1.036 2.707 2.72 0 1.702-1.304 2.738-2.75 2.738-1.457 0-2.718-1.036-2.718-2.72m-.922-.234v2.903h-1.426v-2.582c0-.184.129-1.532-.898-1.582-.504-.035-1.403.246-1.403 1.648v2.516h-1.414v-5.356h1.094l.18.653h.183c.227-.266.727-.704 1.625-.704 1.383 0 2.059 1.028 2.059 2.504m-6.406 0v2.903h-1.434v-2.582c0-.524.086-1.582-.879-1.582-.469 0-1.379.246-1.379 1.648v2.516h-1.437v-7.602h1.359v2.805h.184c.257-.27.75-.61 1.543-.61 1.378 0 2.042 1.028 2.042 2.504m-8.597 2.954c-1.488 0-2.707-1.145-2.707-2.72 0-1.593 1.262-2.741 2.762-2.741 1.218 0 2.257.761 2.558 2.015H98.29c-.223-.441-.621-.719-1.137-.719-.746 0-1.347.602-1.347 1.438 0 .832.601 1.434 1.347 1.434.485 0 .86-.247 1.094-.645h1.469c-.344 1.273-1.445 1.938-2.582 1.938m-7.281-3.403h2.41c-.164-.633-.602-.89-1.137-.89-.59 0-1.059.332-1.273.89m3.824 1.082h-3.91c.16.813.824 1.113 1.402 1.113.727 0 1.04-.453 1.04-.453h1.347c-.406 1.075-1.38 1.66-2.43 1.66-1.445 0-2.707-1.101-2.707-2.769 0-1.66 1.25-2.691 2.664-2.691 1.371 0 2.762.953 2.594 3.14m-4.82-3.898h-2.024v6.168h-1.437V21.05h-2.02v-1.328h5.48zm52.761-7.48c0-.887-.484-1.415-1.18-1.415-.652 0-1.304.473-1.304 1.414 0 .942.652 1.414 1.305 1.414.695 0 1.18-.523 1.18-1.414m1.335-4.925v7.605h-1.047l-.152-.516h-.16c-.332.364-.781.567-1.36.567-1.359 0-2.492-1.114-2.492-2.73 0-1.618 1.133-2.731 2.492-2.731.559 0 1.04.191 1.383.578V8.645Zm-6.133 4.703v2.902h-1.425v-2.582c0-.184.129-1.531-.899-1.586-.504-.031-1.402.246-1.402 1.648v2.52h-1.414v-5.355h1.094l.18.652h.183c.222-.27.726-.707 1.625-.707 1.383 0 2.058 1.027 2.058 2.508m-7.882.652v-.11c-.973.11-1.938.227-1.938.782 0 .816 1.852.75 1.938-.672m1.949 1.219v1.027h-.32c-.622 0-1.063-.223-1.243-.684-.324.438-.86.739-1.691.739-1.211 0-1.98-.621-1.98-1.586 0-1.668 2.28-1.82 3.308-1.871-.023-.621-.363-.848-.914-.848-.758 0-.813.461-.813.461H125.9c.094-.953.875-1.617 2.183-1.617 1.274 0 2.172.633 2.172 2.187v1.422c0 .621.227.77.633.77m-12.785-2.32h2.41c-.164-.633-.602-.891-1.137-.891-.59 0-1.059.332-1.273.89m3.824 1.079h-3.91c.16.816.824 1.113 1.402 1.113.727 0 1.04-.45 1.04-.45h1.347c-.406 1.07-1.38 1.66-2.43 1.66-1.445 0-2.71-1.1-2.71-2.773 0-1.66 1.253-2.687 2.667-2.687 1.371 0 2.762.953 2.594 3.137m-8.578 2.324c-1.489 0-2.711-1.145-2.711-2.719 0-1.594 1.262-2.742 2.762-2.742 1.222 0 2.261.762 2.558 2.015h-1.453c-.227-.44-.621-.718-1.137-.718-.75 0-1.347.597-1.347 1.433 0 .836.597 1.434 1.347 1.434.48 0 .856-.246 1.094-.64h1.465c-.344 1.273-1.445 1.937-2.578 1.937m-3.633-2.953v2.902h-1.422v-2.582c0-.184.125-1.531-.902-1.586-.504-.031-1.403.246-1.403 1.648v2.52h-1.414v-5.355h1.094l.18.652h.183c.227-.27.73-.707 1.63-.707 1.378 0 2.054 1.027 2.054 2.508m-9.883-.45h2.41c-.164-.632-.601-.89-1.136-.89-.59 0-1.06.332-1.274.89m3.824 1.079h-3.91c.16.816.824 1.113 1.403 1.113.726 0 1.039-.45 1.039-.45h1.347c-.406 1.07-1.379 1.66-2.43 1.66-1.445 0-2.706-1.1-2.706-2.773 0-1.66 1.25-2.687 2.664-2.687 1.37 0 2.761.953 2.593 3.137m-6.254 2.27h-1.37v-5.352h1.37zm-1.605-6.852c0-.512.418-.91.918-.91.492 0 .898.398.898.91 0 .48-.406.898-.898.898-.5 0-.918-.418-.918-.898M92.355 16.3c-1.488 0-2.707-1.145-2.707-2.719 0-1.594 1.262-2.742 2.762-2.742 1.223 0 2.262.762 2.559 2.015h-1.453c-.227-.44-.621-.718-1.137-.718-.75 0-1.352.597-1.352 1.433 0 .836.602 1.434 1.352 1.434.48 0 .855-.246 1.094-.64h1.465c-.344 1.273-1.446 1.937-2.583 1.937m-5.886 0c-1.64 0-2.774-1.07-2.774-2.473h1.391c.129.93.898 1.145 1.371 1.145.363 0 1.09-.13 1.09-.825 0-.632-.61-.886-1.219-1.125-1.008-.394-2.43-.875-2.43-2.3 0-1.262 1.102-2.036 2.442-2.036 1.55 0 2.418 1.04 2.418 1.993h-1.371c-.074-.418-.535-.684-1.07-.684-.512 0-.942.254-.942.727 0 .46.418.644 1.145.976.78.352 2.453.77 2.453 2.461 0 1.402-1.145 2.14-2.504 2.14M37.742 42.477H0V4.73h40.842z" fill="#1e1e5c"/>
  <path d="M29.188 23.605h-5.914v-6.32zm-5.16 11.743H18.87v2.062l-3.633-4.758c2.766-.507 4.196-1.937 4.196-4.425 0-.618-.09-1.165-.262-1.649h4.855zm-15.473-8.77h4.023c1.656 0 2.328.64 2.328 1.649 0 1.007-.672 1.668-2.328 1.668H8.555zm10.316-7.476v6.828c-.937-1.582-3.094-2.317-6.293-2.325 2.856-.289 5.496-1.832 6.293-4.503M33.59 8.887h-4.402l-5.914 6.3v-6.3h-8.551v8.363c0 1.79-1.324 2.828-3.086 2.828-1.758 0-3.082-1.039-3.082-2.828V8.887H4.152v8.425c0 3.774 3.047 5.942 6.485 6.293H4.152V38.32h4.403v-5.453h1.922l4.066 5.453H33.59v-2.972h-5.16v-8.77h5.16v-3.883l-6.309-6.46 6.309-6.438zm0 0" fill="#fff"/>
  <path d="m41.332 4.738 23.883 36.895 10.27-21.512V4.738Z" fill="#003088"/>
  <path d="M64.84 20.121v15.512L41.332 4.738 37.742 0v42.477h37.742V20.12Zm0 0" fill="#1e5df8"/>
</svg>
