<?xml version="1.0" encoding="UTF-8"?>
<svg xmlns="http://www.w3.org/2000/svg" xmlns:xlink="http://www.w3.org/1999/xlink" width="137.391pt" height="137.391pt" viewBox="0 0 137.391 137.391" version="1.1">
<defs>
<clipPath id="clip1">
  <path d="M 0 0 L 137.390625 0 L 137.390625 137.390625 L 0 137.390625 Z M 0 0 "/>
</clipPath>
<clipPath id="clip2">
  <path d="M 0 112 L 25 112 L 25 137.390625 L 0 137.390625 Z M 0 112 "/>
</clipPath>
<clipPath id="clip3">
  <path d="M 56 112 L 82 112 L 82 137.390625 L 56 137.390625 Z M 56 112 "/>
</clipPath>
<clipPath id="clip4">
  <path d="M 112 112 L 137.390625 112 L 137.390625 137.390625 L 112 137.390625 Z M 112 112 "/>
</clipPath>
<clipPath id="clip5">
  <path d="M 112 56 L 137.390625 56 L 137.390625 82 L 112 82 Z M 112 56 "/>
</clipPath>
<clipPath id="clip6">
  <path d="M 112 0 L 137.390625 0 L 137.390625 25 L 112 25 Z M 112 0 "/>
</clipPath>
</defs>
<g id="surface1">
<g clip-path="url(#clip1)" clip-rule="nonzero">
<path style=" stroke:none;fill-rule:nonzero;fill:rgb(0%,0%,100%);fill-opacity:0.5;" d="M 68.695312 137.390625 C 67.640625 137.390625 66.625 136.96875 65.878906 136.222656 L 1.167969 71.511719 C 0.421875 70.765625 0 69.75 0 68.695312 L 0 3.984375 C 0 2.558594 0.757812 1.242188 1.992188 0.53125 C 2.597656 0.183594 3.285156 0 3.984375 0 L 68.695312 0 C 69.753906 0 70.765625 0.417969 71.511719 1.167969 L 136.222656 65.875 C 136.96875 66.625 137.390625 67.636719 137.390625 68.695312 L 137.390625 133.40625 C 137.390625 134.828125 136.632812 136.144531 135.398438 136.855469 C 134.792969 137.207031 134.105469 137.390625 133.40625 137.390625 L 68.695312 137.390625 "/>
</g>
<path style=" stroke:none;fill-rule:nonzero;fill:rgb(0%,100%,0%);fill-opacity:1;" d="M 18.894531 125.386719 L 12.003906 118.496094 L 5.109375 125.386719 L 12.003906 132.28125 Z M 18.894531 125.386719 "/>
<g clip-path="url(#clip2)" clip-rule="nonzero">
<path style="fill:none;stroke-width:0.3985;stroke-linecap:butt;stroke-linejoin:miter;stroke:rgb(0%,100%,0%);stroke-opacity:1;stroke-miterlimit:10;" d="M 6.892531 0.00128125 L 0.00190625 6.891906 L -6.892625 0.00128125 L 0.00190625 -6.89325 Z M 6.892531 0.00128125 " transform="matrix(1,0,0,-1,12.002,125.388)"/>
</g>
<path style="fill-rule:nonzero;fill:rgb(0%,0%,0%);fill-opacity:1;stroke-width:0.3985;stroke-linecap:butt;stroke-linejoin:miter;stroke:rgb(0%,0%,0%);stroke-opacity:1;stroke-miterlimit:10;" d="M 2.267531 0.00128125 C 2.267531 1.251281 1.251906 2.266906 0.00190625 2.266906 C -1.252 2.266906 -2.267625 1.251281 -2.267625 0.00128125 C -2.267625 -1.252625 -1.252 -2.26825 0.00190625 -2.26825 C 1.251906 -2.26825 2.267531 -1.252625 2.267531 0.00128125 Z M 2.267531 0.00128125 " transform="matrix(1,0,0,-1,12.002,125.388)"/>
<path style="fill-rule:nonzero;fill:rgb(0%,100%,0%);fill-opacity:1;stroke-width:0.3985;stroke-linecap:butt;stroke-linejoin:miter;stroke:rgb(0%,100%,0%);stroke-opacity:1;stroke-miterlimit:10;" d="M 6.892531 56.692688 L 0.00190625 63.583313 L -6.892625 56.692688 L 0.00190625 49.802063 Z M 6.892531 56.692688 " transform="matrix(1,0,0,-1,12.002,125.388)"/>
<path style="fill-rule:nonzero;fill:rgb(0%,0%,0%);fill-opacity:1;stroke-width:0.3985;stroke-linecap:butt;stroke-linejoin:miter;stroke:rgb(0%,0%,0%);stroke-opacity:1;stroke-miterlimit:10;" d="M 2.267531 56.692688 C 2.267531 57.946594 1.251906 58.962219 0.00190625 58.962219 C -1.252 58.962219 -2.267625 57.946594 -2.267625 56.692688 C -2.267625 55.442688 -1.252 54.427063 0.00190625 54.427063 C 1.251906 54.427063 2.267531 55.442688 2.267531 56.692688 Z M 2.267531 56.692688 " transform="matrix(1,0,0,-1,12.002,125.388)"/>
<path style="fill-rule:nonzero;fill:rgb(0%,100%,0%);fill-opacity:1;stroke-width:0.3985;stroke-linecap:butt;stroke-linejoin:miter;stroke:rgb(0%,100%,0%);stroke-opacity:1;stroke-miterlimit:10;" d="M 6.892531 113.388 L 0.00190625 120.278625 L -6.892625 113.388 L 0.00190625 106.497375 Z M 6.892531 113.388 " transform="matrix(1,0,0,-1,12.002,125.388)"/>
<path style="fill-rule:nonzero;fill:rgb(0%,0%,0%);fill-opacity:1;stroke-width:0.3985;stroke-linecap:butt;stroke-linejoin:miter;stroke:rgb(0%,0%,0%);stroke-opacity:1;stroke-miterlimit:10;" d="M 2.267531 113.388 C 2.267531 114.638 1.251906 115.653625 0.00190625 115.653625 C -1.252 115.653625 -2.267625 114.638 -2.267625 113.388 C -2.267625 112.134094 -1.252 111.118469 0.00190625 111.118469 C 1.251906 111.118469 2.267531 112.134094 2.267531 113.388 Z M 2.267531 113.388 " transform="matrix(1,0,0,-1,12.002,125.388)"/>
<path style=" stroke:none;fill-rule:nonzero;fill:rgb(0%,100%,0%);fill-opacity:1;" d="M 75.585938 125.386719 L 68.695312 118.496094 L 61.804688 125.386719 L 68.695312 132.28125 Z M 75.585938 125.386719 "/>
<g clip-path="url(#clip3)" clip-rule="nonzero">
<path style="fill:none;stroke-width:0.3985;stroke-linecap:butt;stroke-linejoin:miter;stroke:rgb(0%,100%,0%);stroke-opacity:1;stroke-miterlimit:10;" d="M 63.583937 0.00128125 L 56.693312 6.891906 L 49.802687 0.00128125 L 56.693312 -6.89325 Z M 63.583937 0.00128125 " transform="matrix(1,0,0,-1,12.002,125.388)"/>
</g>
<path style="fill-rule:nonzero;fill:rgb(0%,0%,0%);fill-opacity:1;stroke-width:0.3985;stroke-linecap:butt;stroke-linejoin:miter;stroke:rgb(0%,0%,0%);stroke-opacity:1;stroke-miterlimit:10;" d="M 58.962844 0.00128125 C 58.962844 1.251281 57.947219 2.266906 56.693312 2.266906 C 55.439406 2.266906 54.423781 1.251281 54.423781 0.00128125 C 54.423781 -1.252625 55.439406 -2.26825 56.693312 -2.26825 C 57.947219 -2.26825 58.962844 -1.252625 58.962844 0.00128125 Z M 58.962844 0.00128125 " transform="matrix(1,0,0,-1,12.002,125.388)"/>
<path style="fill-rule:nonzero;fill:rgb(0%,100%,0%);fill-opacity:1;stroke-width:0.3985;stroke-linecap:butt;stroke-linejoin:miter;stroke:rgb(0%,100%,0%);stroke-opacity:1;stroke-miterlimit:10;" d="M 63.583937 56.692688 L 56.693312 63.583313 L 49.802687 56.692688 L 56.693312 49.802063 Z M 63.583937 56.692688 " transform="matrix(1,0,0,-1,12.002,125.388)"/>
<path style="fill-rule:nonzero;fill:rgb(0%,0%,0%);fill-opacity:1;stroke-width:0.3985;stroke-linecap:butt;stroke-linejoin:miter;stroke:rgb(0%,0%,0%);stroke-opacity:1;stroke-miterlimit:10;" d="M 58.962844 56.692688 C 58.962844 57.946594 57.947219 58.962219 56.693312 58.962219 C 55.439406 58.962219 54.423781 57.946594 54.423781 56.692688 C 54.423781 55.442688 55.439406 54.427063 56.693312 54.427063 C 57.947219 54.427063 58.962844 55.442688 58.962844 56.692688 Z M 58.962844 56.692688 " transform="matrix(1,0,0,-1,12.002,125.388)"/>
<path style="fill-rule:nonzero;fill:rgb(0%,100%,0%);fill-opacity:1;stroke-width:0.3985;stroke-linecap:butt;stroke-linejoin:miter;stroke:rgb(0%,100%,0%);stroke-opacity:1;stroke-miterlimit:10;" d="M 63.583937 113.388 L 56.693312 120.278625 L 49.802687 113.388 L 56.693312 106.497375 Z M 63.583937 113.388 " transform="matrix(1,0,0,-1,12.002,125.388)"/>
<path style="fill-rule:nonzero;fill:rgb(0%,0%,0%);fill-opacity:1;stroke-width:0.3985;stroke-linecap:butt;stroke-linejoin:miter;stroke:rgb(0%,0%,0%);stroke-opacity:1;stroke-miterlimit:10;" d="M 58.962844 113.388 C 58.962844 114.638 57.947219 115.653625 56.693312 115.653625 C 55.439406 115.653625 54.423781 114.638 54.423781 113.388 C 54.423781 112.134094 55.439406 111.118469 56.693312 111.118469 C 57.947219 111.118469 58.962844 112.134094 58.962844 113.388 Z M 58.962844 113.388 " transform="matrix(1,0,0,-1,12.002,125.388)"/>
<path style=" stroke:none;fill-rule:nonzero;fill:rgb(0%,100%,0%);fill-opacity:1;" d="M 132.28125 125.386719 L 125.390625 118.496094 L 118.496094 125.386719 L 125.390625 132.28125 Z M 132.28125 125.386719 "/>
<g clip-path="url(#clip4)" clip-rule="nonzero">
<path style="fill:none;stroke-width:0.3985;stroke-linecap:butt;stroke-linejoin:miter;stroke:rgb(0%,100%,0%);stroke-opacity:1;stroke-miterlimit:10;" d="M 120.27925 0.00128125 L 113.388625 6.891906 L 106.494094 0.00128125 L 113.388625 -6.89325 Z M 120.27925 0.00128125 " transform="matrix(1,0,0,-1,12.002,125.388)"/>
</g>
<path style="fill-rule:nonzero;fill:rgb(0%,0%,0%);fill-opacity:1;stroke-width:0.3985;stroke-linecap:butt;stroke-linejoin:miter;stroke:rgb(0%,0%,0%);stroke-opacity:1;stroke-miterlimit:10;" d="M 115.65425 0.00128125 C 115.65425 1.251281 114.638625 2.266906 113.388625 2.266906 C 112.134719 2.266906 111.119094 1.251281 111.119094 0.00128125 C 111.119094 -1.252625 112.134719 -2.26825 113.388625 -2.26825 C 114.638625 -2.26825 115.65425 -1.252625 115.65425 0.00128125 Z M 115.65425 0.00128125 " transform="matrix(1,0,0,-1,12.002,125.388)"/>
<path style=" stroke:none;fill-rule:nonzero;fill:rgb(0%,100%,0%);fill-opacity:1;" d="M 132.28125 68.695312 L 125.390625 61.804688 L 118.496094 68.695312 L 125.390625 75.585938 Z M 132.28125 68.695312 "/>
<g clip-path="url(#clip5)" clip-rule="nonzero">
<path style="fill:none;stroke-width:0.3985;stroke-linecap:butt;stroke-linejoin:miter;stroke:rgb(0%,100%,0%);stroke-opacity:1;stroke-miterlimit:10;" d="M 120.27925 56.692688 L 113.388625 63.583313 L 106.494094 56.692688 L 113.388625 49.802063 Z M 120.27925 56.692688 " transform="matrix(1,0,0,-1,12.002,125.388)"/>
</g>
<path style="fill-rule:nonzero;fill:rgb(0%,0%,0%);fill-opacity:1;stroke-width:0.3985;stroke-linecap:butt;stroke-linejoin:miter;stroke:rgb(0%,0%,0%);stroke-opacity:1;stroke-miterlimit:10;" d="M 115.65425 56.692688 C 115.65425 57.946594 114.638625 58.962219 113.388625 58.962219 C 112.134719 58.962219 111.119094 57.946594 111.119094 56.692688 C 111.119094 55.442688 112.134719 54.427063 113.388625 54.427063 C 114.638625 54.427063 115.65425 55.442688 115.65425 56.692688 Z M 115.65425 56.692688 " transform="matrix(1,0,0,-1,12.002,125.388)"/>
<path style=" stroke:none;fill-rule:nonzero;fill:rgb(0%,100%,0%);fill-opacity:1;" d="M 132.28125 12 L 125.390625 5.109375 L 118.496094 12 L 125.390625 18.890625 Z M 132.28125 12 "/>
<g clip-path="url(#clip6)" clip-rule="nonzero">
<path style="fill:none;stroke-width:0.3985;stroke-linecap:butt;stroke-linejoin:miter;stroke:rgb(0%,100%,0%);stroke-opacity:1;stroke-miterlimit:10;" d="M 120.27925 113.388 L 113.388625 120.278625 L 106.494094 113.388 L 113.388625 106.497375 Z M 120.27925 113.388 " transform="matrix(1,0,0,-1,12.002,125.388)"/>
</g>
<path style="fill-rule:nonzero;fill:rgb(0%,0%,0%);fill-opacity:1;stroke-width:0.3985;stroke-linecap:butt;stroke-linejoin:miter;stroke:rgb(0%,0%,0%);stroke-opacity:1;stroke-miterlimit:10;" d="M 115.65425 113.388 C 115.65425 114.638 114.638625 115.653625 113.388625 115.653625 C 112.134719 115.653625 111.119094 114.638 111.119094 113.388 C 111.119094 112.134094 112.134719 111.118469 113.388625 111.118469 C 114.638625 111.118469 115.65425 112.134094 115.65425 113.388 Z M 115.65425 113.388 " transform="matrix(1,0,0,-1,12.002,125.388)"/>
<path style="fill:none;stroke-width:0.79701;stroke-linecap:butt;stroke-linejoin:miter;stroke:rgb(0%,0%,0%);stroke-opacity:1;stroke-miterlimit:10;" d="M 0.00190625 0.00128125 L 113.388625 0.00128125 L 113.388625 113.388 L 0.00190625 113.388 Z M 0.00190625 0.00128125 " transform="matrix(1,0,0,-1,12.002,125.388)"/>
<path style="fill:none;stroke-width:0.79701;stroke-linecap:butt;stroke-linejoin:miter;stroke:rgb(0%,0%,0%);stroke-opacity:1;stroke-miterlimit:10;" d="M 0.00190625 56.692688 L 113.388625 56.692688 " transform="matrix(1,0,0,-1,12.002,125.388)"/>
<path style="fill:none;stroke-width:0.79701;stroke-linecap:butt;stroke-linejoin:miter;stroke:rgb(0%,0%,0%);stroke-opacity:1;stroke-miterlimit:10;" d="M 56.693312 0.00128125 L 56.693312 113.388 " transform="matrix(1,0,0,-1,12.002,125.388)"/>
<path style="fill:none;stroke-width:0.79701;stroke-linecap:butt;stroke-linejoin:miter;stroke:rgb(0%,0%,0%);stroke-opacity:1;stroke-miterlimit:10;" d="M 0.00190625 56.692688 L 56.693312 0.00128125 " transform="matrix(1,0,0,-1,12.002,125.388)"/>
<path style="fill:none;stroke-width:0.79701;stroke-linecap:butt;stroke-linejoin:miter;stroke:rgb(0%,0%,0%);stroke-opacity:1;stroke-miterlimit:10;" d="M 0.00190625 113.388 L 56.693312 56.692688 L 113.388625 0.00128125 " transform="matrix(1,0,0,-1,12.002,125.388)"/>
<path style="fill:none;stroke-width:0.79701;stroke-linecap:butt;stroke-linejoin:miter;stroke:rgb(0%,0%,0%);stroke-opacity:1;stroke-miterlimit:10;" d="M 56.693312 113.388 L 113.388625 56.692688 " transform="matrix(1,0,0,-1,12.002,125.388)"/>
<path style="fill-rule:nonzero;fill:rgb(0%,0%,0%);fill-opacity:1;stroke-width:0.3985;stroke-linecap:butt;stroke-linejoin:miter;stroke:rgb(0%,0%,0%);stroke-opacity:1;stroke-miterlimit:10;" d="M 30.615187 0.00128125 C 30.615187 1.251281 29.599562 2.266906 28.345656 2.266906 C 27.095656 2.266906 26.080031 1.251281 26.080031 0.00128125 C 26.080031 -1.252625 27.095656 -2.26825 28.345656 -2.26825 C 29.599562 -2.26825 30.615187 -1.252625 30.615187 0.00128125 Z M 30.615187 0.00128125 " transform="matrix(1,0,0,-1,12.002,125.388)"/>
<path style="fill-rule:nonzero;fill:rgb(0%,0%,0%);fill-opacity:1;stroke-width:0.3985;stroke-linecap:butt;stroke-linejoin:miter;stroke:rgb(0%,0%,0%);stroke-opacity:1;stroke-miterlimit:10;" d="M 2.267531 28.345031 C 2.267531 29.598938 1.251906 30.614563 0.00190625 30.614563 C -1.252 30.614563 -2.267625 29.598938 -2.267625 28.345031 C -2.267625 27.095031 -1.252 26.079406 0.00190625 26.079406 C 1.251906 26.079406 2.267531 27.095031 2.267531 28.345031 Z M 2.267531 28.345031 " transform="matrix(1,0,0,-1,12.002,125.388)"/>
<path style="fill-rule:nonzero;fill:rgb(0%,0%,0%);fill-opacity:1;stroke-width:0.3985;stroke-linecap:butt;stroke-linejoin:miter;stroke:rgb(0%,0%,0%);stroke-opacity:1;stroke-miterlimit:10;" d="M 30.615187 56.692688 C 30.615187 57.946594 29.599562 58.962219 28.345656 58.962219 C 27.095656 58.962219 26.080031 57.946594 26.080031 56.692688 C 26.080031 55.442688 27.095656 54.427063 28.345656 54.427063 C 29.599562 54.427063 30.615187 55.442688 30.615187 56.692688 Z M 30.615187 56.692688 " transform="matrix(1,0,0,-1,12.002,125.388)"/>
<path style="fill-rule:nonzero;fill:rgb(0%,0%,0%);fill-opacity:1;stroke-width:0.3985;stroke-linecap:butt;stroke-linejoin:miter;stroke:rgb(0%,0%,0%);stroke-opacity:1;stroke-miterlimit:10;" d="M 58.962844 28.345031 C 58.962844 29.598938 57.947219 30.614563 56.693312 30.614563 C 55.439406 30.614563 54.423781 29.598938 54.423781 28.345031 C 54.423781 27.095031 55.439406 26.079406 56.693312 26.079406 C 57.947219 26.079406 58.962844 27.095031 58.962844 28.345031 Z M 58.962844 28.345031 " transform="matrix(1,0,0,-1,12.002,125.388)"/>
<path style="fill-rule:nonzero;fill:rgb(0%,0%,0%);fill-opacity:1;stroke-width:0.3985;stroke-linecap:butt;stroke-linejoin:miter;stroke:rgb(0%,0%,0%);stroke-opacity:1;stroke-miterlimit:10;" d="M 30.615187 113.388 C 30.615187 114.638 29.599562 115.653625 28.345656 115.653625 C 27.095656 115.653625 26.080031 114.638 26.080031 113.388 C 26.080031 112.134094 27.095656 111.118469 28.345656 111.118469 C 29.599562 111.118469 30.615187 112.134094 30.615187 113.388 Z M 30.615187 113.388 " transform="matrix(1,0,0,-1,12.002,125.388)"/>
<path style="fill-rule:nonzero;fill:rgb(0%,0%,0%);fill-opacity:1;stroke-width:0.3985;stroke-linecap:butt;stroke-linejoin:miter;stroke:rgb(0%,0%,0%);stroke-opacity:1;stroke-miterlimit:10;" d="M 115.65425 28.345031 C 115.65425 29.598938 114.638625 30.614563 113.388625 30.614563 C 112.134719 30.614563 111.119094 29.598938 111.119094 28.345031 C 111.119094 27.095031 112.134719 26.079406 113.388625 26.079406 C 114.638625 26.079406 115.65425 27.095031 115.65425 28.345031 Z M 115.65425 28.345031 " transform="matrix(1,0,0,-1,12.002,125.388)"/>
<path style="fill-rule:nonzero;fill:rgb(0%,0%,0%);fill-opacity:1;stroke-width:0.3985;stroke-linecap:butt;stroke-linejoin:miter;stroke:rgb(0%,0%,0%);stroke-opacity:1;stroke-miterlimit:10;" d="M 87.3105 0.00128125 C 87.3105 1.251281 86.294875 2.266906 85.040969 2.266906 C 83.787063 2.266906 82.771438 1.251281 82.771438 0.00128125 C 82.771438 -1.252625 83.787063 -2.26825 85.040969 -2.26825 C 86.294875 -2.26825 87.3105 -1.252625 87.3105 0.00128125 Z M 87.3105 0.00128125 " transform="matrix(1,0,0,-1,12.002,125.388)"/>
<path style="fill-rule:nonzero;fill:rgb(0%,0%,0%);fill-opacity:1;stroke-width:0.3985;stroke-linecap:butt;stroke-linejoin:miter;stroke:rgb(0%,0%,0%);stroke-opacity:1;stroke-miterlimit:10;" d="M 2.267531 85.040344 C 2.267531 86.29425 1.251906 87.309875 0.00190625 87.309875 C -1.252 87.309875 -2.267625 86.29425 -2.267625 85.040344 C -2.267625 83.786438 -1.252 82.770813 0.00190625 82.770813 C 1.251906 82.770813 2.267531 83.786438 2.267531 85.040344 Z M 2.267531 85.040344 " transform="matrix(1,0,0,-1,12.002,125.388)"/>
<path style="fill-rule:nonzero;fill:rgb(0%,0%,0%);fill-opacity:1;stroke-width:0.3985;stroke-linecap:butt;stroke-linejoin:miter;stroke:rgb(0%,0%,0%);stroke-opacity:1;stroke-miterlimit:10;" d="M 87.3105 56.692688 C 87.3105 57.946594 86.294875 58.962219 85.040969 58.962219 C 83.787063 58.962219 82.771438 57.946594 82.771438 56.692688 C 82.771438 55.442688 83.787063 54.427063 85.040969 54.427063 C 86.294875 54.427063 87.3105 55.442688 87.3105 56.692688 Z M 87.3105 56.692688 " transform="matrix(1,0,0,-1,12.002,125.388)"/>
<path style="fill-rule:nonzero;fill:rgb(0%,0%,0%);fill-opacity:1;stroke-width:0.3985;stroke-linecap:butt;stroke-linejoin:miter;stroke:rgb(0%,0%,0%);stroke-opacity:1;stroke-miterlimit:10;" d="M 58.962844 85.040344 C 58.962844 86.29425 57.947219 87.309875 56.693312 87.309875 C 55.439406 87.309875 54.423781 86.29425 54.423781 85.040344 C 54.423781 83.786438 55.439406 82.770813 56.693312 82.770813 C 57.947219 82.770813 58.962844 83.786438 58.962844 85.040344 Z M 58.962844 85.040344 " transform="matrix(1,0,0,-1,12.002,125.388)"/>
<path style="fill-rule:nonzero;fill:rgb(0%,0%,0%);fill-opacity:1;stroke-width:0.3985;stroke-linecap:butt;stroke-linejoin:miter;stroke:rgb(0%,0%,0%);stroke-opacity:1;stroke-miterlimit:10;" d="M 87.3105 113.388 C 87.3105 114.638 86.294875 115.653625 85.040969 115.653625 C 83.787063 115.653625 82.771438 114.638 82.771438 113.388 C 82.771438 112.134094 83.787063 111.118469 85.040969 111.118469 C 86.294875 111.118469 87.3105 112.134094 87.3105 113.388 Z M 87.3105 113.388 " transform="matrix(1,0,0,-1,12.002,125.388)"/>
<path style="fill-rule:nonzero;fill:rgb(0%,0%,0%);fill-opacity:1;stroke-width:0.3985;stroke-linecap:butt;stroke-linejoin:miter;stroke:rgb(0%,0%,0%);stroke-opacity:1;stroke-miterlimit:10;" d="M 115.65425 85.040344 C 115.65425 86.29425 114.638625 87.309875 113.388625 87.309875 C 112.134719 87.309875 111.119094 86.29425 111.119094 85.040344 C 111.119094 83.786438 112.134719 82.770813 113.388625 82.770813 C 114.638625 82.770813 115.65425 83.786438 115.65425 85.040344 Z M 115.65425 85.040344 " transform="matrix(1,0,0,-1,12.002,125.388)"/>
<path style="fill-rule:nonzero;fill:rgb(0%,0%,0%);fill-opacity:1;stroke-width:0.3985;stroke-linecap:butt;stroke-linejoin:miter;stroke:rgb(0%,0%,0%);stroke-opacity:1;stroke-miterlimit:10;" d="M 30.615187 28.345031 C 30.615187 29.598938 29.599562 30.614563 28.345656 30.614563 C 27.095656 30.614563 26.080031 29.598938 26.080031 28.345031 C 26.080031 27.095031 27.095656 26.079406 28.345656 26.079406 C 29.599562 26.079406 30.615187 27.095031 30.615187 28.345031 Z M 30.615187 28.345031 " transform="matrix(1,0,0,-1,12.002,125.388)"/>
<path style="fill-rule:nonzero;fill:rgb(0%,0%,0%);fill-opacity:1;stroke-width:0.3985;stroke-linecap:butt;stroke-linejoin:miter;stroke:rgb(0%,0%,0%);stroke-opacity:1;stroke-miterlimit:10;" d="M 87.3105 85.040344 C 87.3105 86.29425 86.294875 87.309875 85.040969 87.309875 C 83.787063 87.309875 82.771438 86.29425 82.771438 85.040344 C 82.771438 83.786438 83.787063 82.770813 85.040969 82.770813 C 86.294875 82.770813 87.3105 83.786438 87.3105 85.040344 Z M 87.3105 85.040344 " transform="matrix(1,0,0,-1,12.002,125.388)"/>
<path style="fill-rule:nonzero;fill:rgb(0%,0%,0%);fill-opacity:1;stroke-width:0.3985;stroke-linecap:butt;stroke-linejoin:miter;stroke:rgb(0%,0%,0%);stroke-opacity:1;stroke-miterlimit:10;" d="M 87.3105 28.345031 C 87.3105 29.598938 86.294875 30.614563 85.040969 30.614563 C 83.787063 30.614563 82.771438 29.598938 82.771438 28.345031 C 82.771438 27.095031 83.787063 26.079406 85.040969 26.079406 C 86.294875 26.079406 87.3105 27.095031 87.3105 28.345031 Z M 87.3105 28.345031 " transform="matrix(1,0,0,-1,12.002,125.388)"/>
<path style="fill-rule:nonzero;fill:rgb(0%,0%,0%);fill-opacity:1;stroke-width:0.3985;stroke-linecap:butt;stroke-linejoin:miter;stroke:rgb(0%,0%,0%);stroke-opacity:1;stroke-miterlimit:10;" d="M 30.615187 85.040344 C 30.615187 86.29425 29.599562 87.309875 28.345656 87.309875 C 27.095656 87.309875 26.080031 86.29425 26.080031 85.040344 C 26.080031 83.786438 27.095656 82.770813 28.345656 82.770813 C 29.599562 82.770813 30.615187 83.786438 30.615187 85.040344 Z M 30.615187 85.040344 " transform="matrix(1,0,0,-1,12.002,125.388)"/>
</g>
</svg>
