<?xml version="1.0" encoding="UTF-8" standalone="no"?>
<!-- Created with Inkscape (http://www.inkscape.org/) -->

<svg
   version="1.1"
   id="svg2"
   width="386.45468"
   height="101.368"
   viewBox="0 0 386.45468 101.368"
   sodipodi:docname="elements.pdf"
   xmlns:inkscape="http://www.inkscape.org/namespaces/inkscape"
   xmlns:sodipodi="http://sodipodi.sourceforge.net/DTD/sodipodi-0.dtd"
   xmlns="http://www.w3.org/2000/svg"
   xmlns:svg="http://www.w3.org/2000/svg">
  <defs
     id="defs6" />
  <sodipodi:namedview
     id="namedview4"
     pagecolor="#ffffff"
     bordercolor="#666666"
     borderopacity="1.0"
     inkscape:showpageshadow="2"
     inkscape:pageopacity="0.0"
     inkscape:pagecheckerboard="0"
     inkscape:deskcolor="#d1d1d1" />
  <g
     id="g8"
     inkscape:groupmode="layer"
     inkscape:label="elements"
     transform="matrix(1.3333333,0,0,-1.3333333,0,101.368)">
    <g
       id="g10"
       transform="translate(3.985,22.946)">
      <g
         id="g12">
        <g
           id="g14">
          <g
             id="g16">
            <g
               id="g18">
              <path
                 d="M 0,0 H 56.69362 L 28.3468,49.09651 Z"
                 style="fill:#ccccff;fill-opacity:1;fill-rule:nonzero;stroke:#000000;stroke-width:0.79701;stroke-linecap:butt;stroke-linejoin:miter;stroke-miterlimit:10;stroke-dasharray:none;stroke-opacity:1"
                 id="path20" />
            </g>
            <g
               id="g22">
              <path
                 d="M 1.99255,0 C 1.99255,1.10046 1.10046,1.99255 0,1.99255 -1.10046,1.99255 -1.99255,1.10046 -1.99255,0 c 0,-1.10046 0.89209,-1.99255 1.99255,-1.99255 1.10046,0 1.99255,0.89209 1.99255,1.99255 z"
                 style="fill:#000000;fill-opacity:1;fill-rule:nonzero;stroke:none"
                 id="path24" />
            </g>
            <g
               id="g26">
              <path
                 d="m 58.68617,0 c 0,1.10046 -0.89209,1.99255 -1.99255,1.99255 -1.10048,0 -1.99255,-0.89209 -1.99255,-1.99255 0,-1.10046 0.89207,-1.99255 1.99255,-1.99255 1.10046,0 1.99255,0.89209 1.99255,1.99255 z"
                 style="fill:#000000;fill-opacity:1;fill-rule:nonzero;stroke:none"
                 id="path28" />
            </g>
            <g
               id="g30">
              <path
                 d="m 30.33936,49.09651 c 0,1.10048 -0.89208,1.99256 -1.99256,1.99256 -1.10046,0 -1.99255,-0.89208 -1.99255,-1.99256 0,-1.10046 0.89209,-1.99255 1.99255,-1.99255 1.10048,0 1.99256,0.89209 1.99256,1.99255 z"
                 style="fill:#000000;fill-opacity:1;fill-rule:nonzero;stroke:none"
                 id="path32" />
            </g>
            <g
               id="g34">
              <g
                 id="g36"
                 transform="translate(22.466,-17.578)">
                <g
                   id="g38">
                  <g
                     id="g40"
                     transform="translate(-26.451,-5.368)">
                    <text
                       xml:space="preserve"
                       transform="matrix(1,0,0,-1,26.451,5.368)"
                       style="font-variant:normal;font-weight:normal;font-size:9.9626px;font-family:CMR10;-inkscape-font-specification:CMR10;writing-mode:lr-tb;fill:#000000;fill-opacity:1;fill-rule:nonzero;stroke:none"
                       id="text44"><tspan
                         x="0 6.7805457"
                         y="0"
                         sodipodi:role="line"
                         id="tspan42">P1</tspan></text>
                    <g
                       id="g46"
                       transform="translate(26.451,5.368)" />
                  </g>
                </g>
                <g
                   id="g48"
                   transform="translate(-22.466,17.578)" />
              </g>
            </g>
          </g>
          <g
             id="g50">
            <g
               id="g52">
              <path
                 d="m 113.38724,0 h 56.69362 l -28.34682,49.09651 z"
                 style="fill:#ccffcc;fill-opacity:1;fill-rule:nonzero;stroke:#000000;stroke-width:0.79701;stroke-linecap:butt;stroke-linejoin:miter;stroke-miterlimit:10;stroke-dasharray:none;stroke-opacity:1"
                 id="path54" />
            </g>
            <g
               id="g56">
              <path
                 d="m 141.73404,0 14.1734,24.54825 h -28.34682 z"
                 style="fill:none;stroke:#000000;stroke-width:0.79701;stroke-linecap:butt;stroke-linejoin:miter;stroke-miterlimit:10;stroke-dasharray:none;stroke-opacity:1"
                 id="path58" />
            </g>
            <g
               id="g60">
              <path
                 d="m 113.38724,0 14.17338,24.54825"
                 style="fill:none;stroke:#000000;stroke-width:0.79701;stroke-linecap:butt;stroke-linejoin:miter;stroke-miterlimit:10;stroke-dasharray:none;stroke-opacity:1"
                 id="path62" />
            </g>
            <g
               id="g64">
              <path
                 d="M 170.08086,0 155.90744,24.54825"
                 style="fill:none;stroke:#000000;stroke-width:0.79701;stroke-linecap:butt;stroke-linejoin:miter;stroke-miterlimit:10;stroke-dasharray:none;stroke-opacity:1"
                 id="path66" />
            </g>
            <g
               id="g68">
              <path
                 d="M 141.73404,49.09651 127.56062,24.54825"
                 style="fill:none;stroke:#000000;stroke-width:0.79701;stroke-linecap:butt;stroke-linejoin:miter;stroke-miterlimit:10;stroke-dasharray:none;stroke-opacity:1"
                 id="path70" />
            </g>
            <g
               id="g72">
              <path
                 d="m 141.73404,49.09651 14.1734,-24.54826"
                 style="fill:none;stroke:#000000;stroke-width:0.79701;stroke-linecap:butt;stroke-linejoin:miter;stroke-miterlimit:10;stroke-dasharray:none;stroke-opacity:1"
                 id="path74" />
            </g>
            <g
               id="g76">
              <path
                 d="M 141.73404,0 127.56062,24.54825"
                 style="fill:none;stroke:#000000;stroke-width:0.79701;stroke-linecap:butt;stroke-linejoin:miter;stroke-miterlimit:10;stroke-dasharray:none;stroke-opacity:1"
                 id="path78" />
            </g>
            <g
               id="g80">
              <path
                 d="m 141.73404,0 14.1734,24.54825"
                 style="fill:none;stroke:#000000;stroke-width:0.79701;stroke-linecap:butt;stroke-linejoin:miter;stroke-miterlimit:10;stroke-dasharray:none;stroke-opacity:1"
                 id="path82" />
            </g>
            <g
               id="g84">
              <path
                 d="m 115.37979,0 c 0,1.10046 -0.89209,1.99255 -1.99255,1.99255 -1.10048,0 -1.99256,-0.89209 -1.99256,-1.99255 0,-1.10046 0.89208,-1.99255 1.99256,-1.99255 1.10046,0 1.99255,0.89209 1.99255,1.99255 z"
                 style="fill:#000000;fill-opacity:1;fill-rule:nonzero;stroke:none"
                 id="path86" />
            </g>
            <g
               id="g88">
              <path
                 d="m 172.07341,0 c 0,1.10046 -0.89209,1.99255 -1.99255,1.99255 -1.10048,0 -1.99256,-0.89209 -1.99256,-1.99255 0,-1.10046 0.89208,-1.99255 1.99256,-1.99255 1.10046,0 1.99255,0.89209 1.99255,1.99255 z"
                 style="fill:#000000;fill-opacity:1;fill-rule:nonzero;stroke:none"
                 id="path90" />
            </g>
            <g
               id="g92">
              <path
                 d="m 143.7266,49.09651 c 0,1.10048 -0.89208,1.99256 -1.99256,1.99256 -1.10046,0 -1.99255,-0.89208 -1.99255,-1.99256 0,-1.10046 0.89209,-1.99255 1.99255,-1.99255 1.10048,0 1.99256,0.89209 1.99256,1.99255 z"
                 style="fill:#000000;fill-opacity:1;fill-rule:nonzero;stroke:none"
                 id="path94" />
            </g>
            <g
               id="g96">
              <path
                 d="m 143.7266,0 c 0,1.10046 -0.89208,1.99255 -1.99256,1.99255 -1.10046,0 -1.99255,-0.89209 -1.99255,-1.99255 0,-1.10046 0.89209,-1.99255 1.99255,-1.99255 1.10048,0 1.99256,0.89209 1.99256,1.99255 z"
                 style="fill:#000000;fill-opacity:1;fill-rule:nonzero;stroke:none"
                 id="path98" />
            </g>
            <g
               id="g100">
              <path
                 d="m 129.55318,24.54825 c 0,1.10048 -0.89208,1.99255 -1.99256,1.99255 -1.10046,0 -1.99255,-0.89207 -1.99255,-1.99255 0,-1.10047 0.89209,-1.99255 1.99255,-1.99255 1.10048,0 1.99256,0.89208 1.99256,1.99255 z"
                 style="fill:#000000;fill-opacity:1;fill-rule:nonzero;stroke:none"
                 id="path102" />
            </g>
            <g
               id="g104">
              <path
                 d="m 157.9,24.54825 c 0,1.10048 -0.8921,1.99255 -1.99256,1.99255 -1.10048,0 -1.99255,-0.89207 -1.99255,-1.99255 0,-1.10047 0.89207,-1.99255 1.99255,-1.99255 1.10046,0 1.99256,0.89208 1.99256,1.99255 z"
                 style="fill:#000000;fill-opacity:1;fill-rule:nonzero;stroke:none"
                 id="path106" />
            </g>
            <g
               id="g108">
              <g
                 id="g110"
                 transform="translate(120.811,-17.578)">
                <g
                   id="g112">
                  <g
                     id="g114"
                     transform="translate(-124.796,-5.368)">
                    <text
                       xml:space="preserve"
                       transform="matrix(1,0,0,-1,124.796,5.368)"
                       style="font-variant:normal;font-weight:normal;font-size:9.9626px;font-family:CMR10;-inkscape-font-specification:CMR10;writing-mode:lr-tb;fill:#000000;fill-opacity:1;fill-rule:nonzero;stroke:none"
                       id="text118"><tspan
                         x="0 6.7805457 11.761846 15.08238 17.849991 21.77924 26.76054 30.081074 36.861622"
                         y="0"
                         sodipodi:role="line"
                         id="tspan116">P1-iso-P2</tspan></text>
                    <g
                       id="g120"
                       transform="translate(124.796,5.368)" />
                  </g>
                </g>
                <g
                   id="g122"
                   transform="translate(-120.811,17.578)" />
              </g>
            </g>
          </g>
          <g
             id="g124">
            <g
               id="g126">
              <path
                 d="M 226.77448,0 H 283.4681 L 255.12128,49.09651 Z"
                 style="fill:#ffcccc;fill-opacity:1;fill-rule:nonzero;stroke:#000000;stroke-width:0.79701;stroke-linecap:butt;stroke-linejoin:miter;stroke-miterlimit:10;stroke-dasharray:none;stroke-opacity:1"
                 id="path128" />
            </g>
            <g
               id="g130">
              <path
                 d="m 233.86116,0 h 41.31473"
                 style="fill:none;stroke:#000000;stroke-width:1.59404;stroke-linecap:butt;stroke-linejoin:miter;stroke-miterlimit:10;stroke-dasharray:none;stroke-opacity:1"
                 id="path132" />
              <g
                 id="g134"
                 transform="translate(275.17589)">
                <g
                   id="g136">
                  <path
                     d="M -2.27148,3.02866 C -2.0822,1.8929 0,0.18927 0.56786,0 0,-0.18927 -2.0822,-1.8929 -2.27148,-3.02866"
                     style="fill:none;stroke:#000000;stroke-width:1.27522;stroke-linecap:round;stroke-linejoin:round;stroke-miterlimit:10;stroke-dasharray:none;stroke-opacity:1"
                     id="path138" />
                </g>
              </g>
            </g>
            <g
               id="g140">
              <path
                 d="m 276.38138,12.27411 -13.57067,23.5043"
                 style="fill:none;stroke:#000000;stroke-width:1.59404;stroke-linecap:butt;stroke-linejoin:miter;stroke-miterlimit:10;stroke-dasharray:none;stroke-opacity:1"
                 id="path142" />
              <g
                 id="g144"
                 transform="matrix(-0.5,0.86601,-0.86601,-0.5,262.81073,35.7784)">
                <g
                   id="g146">
                  <path
                     d="M -2.27148,3.02866 C -2.0822,1.8929 0,0.18927 0.56786,0 0,-0.18927 -2.0822,-1.8929 -2.27148,-3.02866"
                     style="fill:none;stroke:#000000;stroke-width:1.27522;stroke-linecap:round;stroke-linejoin:round;stroke-miterlimit:10;stroke-dasharray:none;stroke-opacity:1"
                     id="path148" />
                </g>
              </g>
            </g>
            <g
               id="g150">
              <path
                 d="M 248.03458,36.82237 234.46391,13.31808"
                 style="fill:none;stroke:#000000;stroke-width:1.59404;stroke-linecap:butt;stroke-linejoin:miter;stroke-miterlimit:10;stroke-dasharray:none;stroke-opacity:1"
                 id="path152" />
              <g
                 id="g154"
                 transform="matrix(-0.5,-0.86601,0.86601,-0.5,234.46393,13.3181)">
                <g
                   id="g156">
                  <path
                     d="M -2.27148,3.02866 C -2.0822,1.8929 0,0.18927 0.56786,0 0,-0.18927 -2.0822,-1.8929 -2.27148,-3.02866"
                     style="fill:none;stroke:#000000;stroke-width:1.27522;stroke-linecap:round;stroke-linejoin:round;stroke-miterlimit:10;stroke-dasharray:none;stroke-opacity:1"
                     id="path158" />
                </g>
              </g>
            </g>
            <g
               id="g160">
              <g
                 id="g162"
                 transform="translate(234.224,-17.633)">
                <g
                   id="g164">
                  <g
                     id="g166"
                     transform="translate(-238.209,-5.313)">
                    <text
                       xml:space="preserve"
                       transform="matrix(1,0,0,-1,238.209,5.313)"
                       style="font-variant:normal;font-weight:normal;font-size:9.9626px;font-family:CMR10;-inkscape-font-specification:CMR10;writing-mode:lr-tb;fill:#000000;fill-opacity:1;fill-rule:nonzero;stroke:none"
                       id="text170"><tspan
                         x="0 7.4719501 11.899329 17.434549 21.861929 24.629539 29.056919 36.801846"
                         y="0"
                         sodipodi:role="line"
                         id="tspan168">Nedelec1</tspan></text>
                    <g
                       id="g172"
                       transform="translate(238.209,5.313)" />
                  </g>
                </g>
                <g
                   id="g174"
                   transform="translate(-234.224,17.633)" />
              </g>
            </g>
          </g>
        </g>
      </g>
    </g>
  </g>
</svg>
